<?xml version="1.0" encoding="iso-8859-1"?>
<!-- Generator: Adobe Illustrator 19.0.0, SVG Export Plug-In . SVG Version: 6.00 Build 0)  -->
<svg version="1.1" id="Layer_1" xmlns="http://www.w3.org/2000/svg" xmlns:xlink="http://www.w3.org/1999/xlink" x="0px" y="0px"
	 viewBox="0 0 512 512" style="enable-background:new 0 0 512 512;" xml:space="preserve">
<path style="fill:#E7E8E3;" d="M512,402.282c0,16.716-13.55,30.267-30.265,30.267H30.265C13.55,432.549,0,418.997,0,402.282V109.717
	c0-16.716,13.55-30.266,30.265-30.266h451.47c16.716,0,30.265,13.551,30.265,30.266L512,402.282L512,402.282z"/>
<path style="opacity:0.15;fill:#202121;enable-background:new    ;" d="M21.517,402.282V109.717
	c0-16.716,13.552-30.266,30.267-30.266h-21.52C13.55,79.451,0,93.001,0,109.717v292.565c0,16.716,13.55,30.267,30.265,30.267h21.52
	C35.07,432.549,21.517,418.997,21.517,402.282z"/>
<g>
	<path style="fill:#05AFD6;" d="M383.833,238.379c-4.815-8.534-13.487-14.056-24.574-14.056c-17.227,0-28.672,13.496-28.672,30.929
		c0,18.032,11.68,31.166,28.672,31.166c11.146,0,19.985-5.579,24.793-14.45c0.646-5.232,0.985-10.562,0.985-15.97
		C385.037,250.022,384.62,244.141,383.833,238.379z"/>
	<path style="fill:#05AFD6;" d="M359.142,299.914c-25.721,0-44.72-18.271-44.72-44.661c0-27.107,18.997-44.181,44.72-44.181
		c6.948,0,13.387,1.224,19.107,3.516c-17.254-50.951-65.467-87.625-122.248-87.625c-71.265,0-129.035,57.77-129.035,129.037
		c0,71.265,57.77,129.036,129.035,129.036c57.298,0,105.863-37.348,122.702-89.025C372.872,298.537,366.274,299.914,359.142,299.914
		z M228.919,297.764h-58.374v-13.013l33.834-31.702c5.452-5.086,8.924-9.936,8.924-16.442c0-7.807-6.073-12.894-14.004-12.894
		c-7.919,0-13.102,5.431-14.623,12.857l-13.564-5.879c3.7-11.108,14.423-18.806,28.434-18.806c15.242,0,29.246,8.397,29.246,24.487
		c0,10.763-6.321,18.215-14.128,25.313l-25.282,23.067h39.535V297.764z M282.083,300.181c-26.081,0-44.61-18.325-44.61-44.795
		c0-27.188,19.593-44.315,45.319-44.315c10.859,0,23.721,4.073,30.333,12.935l-11.333,9.101c-4.365-6.104-12.271-8.744-19-8.744
		c-17.229,0-28.916,13.538-28.916,31.024c0,18.443,11.096,31.26,28.326,31.26c8.97,0,16.05-3.952,20.298-9.822l11.922,8.506
		C307.103,294.672,296.248,300.181,282.083,300.181z"/>
</g>
<g>
</g>
<g>
</g>
<g>
</g>
<g>
</g>
<g>
</g>
<g>
</g>
<g>
</g>
<g>
</g>
<g>
</g>
<g>
</g>
<g>
</g>
<g>
</g>
<g>
</g>
<g>
</g>
<g>
</g>
</svg>
