<?xml version="1.0" encoding="iso-8859-1"?>
<!-- Generator: Adobe Illustrator 19.0.0, SVG Export Plug-In . SVG Version: 6.00 Build 0)  -->
<svg version="1.1" id="Layer_1" xmlns="http://www.w3.org/2000/svg" xmlns:xlink="http://www.w3.org/1999/xlink" x="0px" y="0px"
	 viewBox="0 0 512 512" style="enable-background:new 0 0 512 512;" xml:space="preserve">
<path style="fill:#E7E8E3;" d="M512,402.282c0,16.716-13.55,30.267-30.265,30.267H30.265C13.55,432.549,0,418.996,0,402.282V109.717
	c0-16.716,13.55-30.266,30.265-30.266h451.469c16.716,0,30.265,13.551,30.265,30.266v292.565H512z"/>
<path style="opacity:0.15;fill:#202121;enable-background:new    ;" d="M21.517,402.282V109.717
	c0-16.716,13.552-30.266,30.267-30.266h-21.52C13.55,79.451,0,93.003,0,109.717v292.565c0,16.716,13.55,30.267,30.265,30.267h21.52
	C35.07,432.549,21.517,418.996,21.517,402.282z"/>
<g>
	<path style="fill:#006E90;" d="M146.165,179.389h38.042c14.009-0.227,29.384,3.418,29.384,20.389c0,7.289-4.329,13.211-10.706,16.4
		c8.654,2.505,14.011,10.024,14.011,19.249c0,19.363-14.239,25.284-31.665,25.284h-39.066V179.389z M167.348,211.395h16.404
		c3.643,0,8.654-1.937,8.654-7.745c0-5.923-4.215-7.858-8.654-7.858h-16.404V211.395z M167.348,243.741h16.972
		c6.719,0,11.389-2.391,11.389-9.111c0-7.176-5.011-9.568-11.389-9.568h-16.972V243.741z"/>
	<path style="fill:#006E90;" d="M250.487,179.389h21.524l30.411,81.322h-22.096l-5.011-14.578h-28.36l-5.126,14.578h-21.754
		L250.487,179.389z M251.852,230.417h18.45l-8.998-28.474h-0.226L251.852,230.417z"/>
	<path style="fill:#006E90;" d="M308.336,179.389h21.757l28.246,50.115h0.226v-50.115h19.935v81.322h-21.757l-28.246-50.682h-0.226
		v50.682h-19.935V179.389z"/>
	<path style="fill:#006E90;" d="M392.957,179.389h21.185v31.209l26.765-31.209h26.311l-30.07,32.006l33.829,49.317h-26.309
		l-21.869-34.167l-8.656,9.112v25.056h-21.185v-81.323H392.957z"/>
</g>
<g>
	<path style="fill:#66CDE7;" d="M92.893,290.217H76.184v43.452H61.598v-43.452H44.891v-12.55h48.002V290.217z"/>
	<path style="fill:#66CDE7;" d="M99.324,277.668h28.55c9.883,0,19.608,4.472,19.608,15.764c0,6.04-2.899,11.766-8.783,14.042v0.155
		c5.96,1.414,7.684,8.078,8.156,13.413c0.157,2.352,0.394,10.587,2.354,12.629h-14.435c-1.254-1.882-1.489-7.373-1.646-8.941
		c-0.394-5.648-1.332-11.451-8.156-11.451h-11.059v20.392H99.324V277.668z M113.916,301.981h12.232c4.393,0,6.746-2.352,6.746-6.586
		c0-4.156-3.294-6.042-7.372-6.042h-11.607C113.916,289.353,113.916,301.981,113.916,301.981z"/>
	<path style="fill:#66CDE7;" d="M171.169,277.668h14.824l20.941,56.002h-15.218l-3.448-10.041h-19.531l-3.528,10.041h-14.983
		L171.169,277.668z M172.111,312.806h12.707l-6.197-19.611h-0.157L172.111,312.806z"/>
	<path style="fill:#66CDE7;" d="M211.015,277.668h14.98l19.453,34.511h0.159v-34.511h13.726v56.002h-14.98l-19.455-34.902h-0.157
		v34.902h-13.726V277.668z"/>
	<path style="fill:#66CDE7;" d="M280.665,314.845c0.315,6.588,4.393,8.704,10.59,8.704c4.391,0,8.941-1.567,8.941-5.724
		c0-4.941-8.001-5.882-16.078-8.159c-8.001-2.274-16.394-5.88-16.394-16.157c0-12.235,12.315-17.02,22.826-17.02
		c11.137,0,22.352,5.41,22.432,18.039h-14.589c0.235-5.098-4.55-6.745-9.021-6.745c-3.137,0-7.059,1.097-7.059,4.785
		c0,4.313,8.078,5.097,16.235,7.373c8.081,2.274,16.237,6.038,16.237,16.156c0,14.198-12.08,18.748-24.393,18.748
		c-12.863,0-24.234-5.649-24.316-20.001h14.589V314.845z"/>
	<path style="fill:#66CDE7;" d="M321.608,277.668h41.258v11.686h-26.667v11.452h23.059v11.292h-23.059v21.572h-14.591V277.668z"/>
	<path style="fill:#66CDE7;" d="M369.535,277.668h44.629v11.686h-30.041v9.805h27.452v11.294h-27.452v10.668h30.826v12.548h-45.413
		L369.535,277.668L369.535,277.668z"/>
	<path style="fill:#66CDE7;" d="M423.263,277.668h28.55c9.883,0,19.606,4.472,19.606,15.764c0,6.04-2.9,11.766-8.783,14.042v0.155
		c5.96,1.414,7.687,8.078,8.156,13.413c0.159,2.352,0.392,10.587,2.354,12.629h-14.433c-1.257-1.882-1.489-7.373-1.647-8.941
		c-0.392-5.648-1.332-11.451-8.156-11.451h-11.058v20.392h-14.589L423.263,277.668L423.263,277.668z M437.852,301.981h12.237
		c4.391,0,6.742-2.352,6.742-6.586c0-4.156-3.291-6.042-7.372-6.042h-11.607V301.981z"/>
</g>
<g>
	<rect x="44.889" y="179.378" style="fill:#D92B2B;" width="88.298" height="17.682"/>
	<rect x="44.889" y="243.033" style="fill:#D92B2B;" width="88.298" height="17.681"/>
	<rect x="44.889" y="211.2" style="fill:#D92B2B;" width="88.298" height="17.682"/>
</g>
<g>
</g>
<g>
</g>
<g>
</g>
<g>
</g>
<g>
</g>
<g>
</g>
<g>
</g>
<g>
</g>
<g>
</g>
<g>
</g>
<g>
</g>
<g>
</g>
<g>
</g>
<g>
</g>
<g>
</g>
</svg>
