<?xml version="1.0" encoding="iso-8859-1"?>
<!-- Generator: Adobe Illustrator 19.0.0, SVG Export Plug-In . SVG Version: 6.00 Build 0)  -->
<svg version="1.1" id="Layer_1" xmlns="http://www.w3.org/2000/svg" xmlns:xlink="http://www.w3.org/1999/xlink" x="0px" y="0px"
	 viewBox="0 0 512 512" style="enable-background:new 0 0 512 512;" xml:space="preserve">
<path style="fill:#E7E8E3;" d="M512,402.282c0,16.716-13.55,30.267-30.265,30.267H30.265C13.55,432.549,0,418.996,0,402.282V109.717
	c0-16.716,13.55-30.266,30.265-30.266h451.469c16.716,0,30.265,13.551,30.265,30.266v292.565H512z"/>
<path style="opacity:0.15;fill:#202121;enable-background:new    ;" d="M21.517,402.282V109.717
	c0-16.716,13.552-30.266,30.267-30.266h-21.52C13.55,79.451,0,93.003,0,109.717v292.565c0,16.716,13.55,30.267,30.265,30.267h21.52
	C35.07,432.549,21.517,418.996,21.517,402.282z"/>
<g>
	<path style="fill:#005E88;" d="M208.349,359.814c4.691-2.343,8.206-6.447,8.206-13.479c0-4.105-1.174-7.622-4.103-10.555
		c-3.517-3.517-9.378-5.274-16.415-5.274h-28.724v61.549h29.311c14.068,0,23.447-5.861,23.447-16.998
		C220.074,366.849,215.383,362.744,208.349,359.814z M180.213,342.816h14.07c5.861,0,8.793,2.342,8.793,6.446
		c0,4.691-4.105,6.448-9.967,6.448h-12.896V342.816z M196.626,380.329h-16.413v-13.48h16.413c7.034,0,9.967,2.928,9.967,7.032
		C206.593,377.985,202.489,380.329,196.626,380.329z"/>
	<path style="fill:#005E88;" d="M266.968,359.814c4.691-2.343,8.209-6.447,8.209-13.479c0-4.105-1.174-7.622-4.105-10.555
		c-3.517-3.517-9.379-5.274-16.415-5.274h-28.722v61.549h29.309c14.068,0,23.447-5.861,23.447-16.998
		C278.692,366.849,274.002,362.744,266.968,359.814z M238.832,342.816H252.9c5.861,0,8.793,2.342,8.793,6.446
		c0,4.691-4.103,6.448-9.965,6.448h-12.896L238.832,342.816L238.832,342.816z M255.243,380.329h-16.411v-13.48h16.411
		c7.034,0,9.967,2.928,9.967,7.032C265.21,377.985,261.107,380.329,255.243,380.329z"/>
	<path style="fill:#005E88;" d="M325.585,359.814c4.691-2.343,8.209-6.447,8.209-13.479c0-4.105-1.174-7.622-4.105-10.555
		c-3.515-3.517-9.376-5.274-16.413-5.274h-28.724v61.549h29.309c14.07,0,23.45-5.861,23.45-16.998
		C337.311,366.849,332.62,362.744,325.585,359.814z M298.037,342.816h13.482c5.859,0,8.793,2.342,8.793,6.446
		c0,4.691-4.105,6.448-9.967,6.448h-12.309v-12.893H298.037z M313.86,380.329H297.45v-13.48h15.826c7.037,0,9.967,2.928,9.967,7.032
		C323.243,377.985,319.726,380.329,313.86,380.329z"/>
	<path style="fill:#005E88;" d="M310.345,186.303c-1.756-9.377-6.448-17.585-14.654-23.445l-38.099-27.552
		c-2.347-1.756-4.105-4.105-4.691-7.034c-0.587-2.93,0-5.86,1.756-8.208l-2.928-2.342l-20.516,28.134
		c-4.691,6.452-7.034,13.486-7.034,21.107c0,1.756,0,4.1,0.587,5.86c1.756,9.377,6.448,17.585,14.654,23.448l31.653,22.859
		c2.956,2.114,5.287,5.141,6.587,8.42l0.016-0.009c0,0,0.041,0.107,0.107,0.293c0.445,1.181,0.759,2.393,0.91,3.606v0.326
		c0.26,1.992,0.278,4.458-0.504,6.873v0.001c-0.963,3.883-2.94,6.645-2.94,6.645l3.444,2.567l25.206-34.582
		C309.759,205.647,312.104,195.684,310.345,186.303z"/>
	<path style="fill:#005E88;" d="M268.695,244.671c-1.553-5.415-4.789-10.273-9.347-13.818l-23.639-17.043l-0.022-0.039
		c-6.113-4.868-2.133-10.467-2.133-10.467l-3.681-3.029l-3.734,5.35l-9.582,12.916c-3.448,4.434-4.822,9.696-4.826,15.436
		c-0.022,1.279,0.023,2.583,0.137,3.91c1.174,6.446,4.689,12.31,9.963,16.414l24.471,17.64c0.47,0.358,1.17,0.944,1.785,1.657
		c0.128,0.15,0.253,0.303,0.367,0.46c0.128,0.174,0.246,0.353,0.354,0.536c0.087,0.149,0.169,0.301,0.239,0.457
		c0.023,0.055,0.048,0.109,0.07,0.163c0.089,0.232,0.165,0.471,0.209,0.726c0.258,1.023,0.319,2.405-0.479,3.833
		c-0.132,0.273-0.306,0.524-0.515,0.76c-0.119,0.152-0.239,0.304-0.381,0.456l3.777,3.206l13.482-18.172
		c1.037-1.453,1.92-3.058,2.637-4.753C270.791,253.865,269.117,246.305,268.695,244.671z"/>
	<polygon style="fill:#005E88;" points="304.485,290.059 199.559,290.059 195.608,302.368 223.591,302.368 228.87,319.953 
		275.177,319.953 280.448,302.368 308.443,302.368 	"/>
</g>
<g>
</g>
<g>
</g>
<g>
</g>
<g>
</g>
<g>
</g>
<g>
</g>
<g>
</g>
<g>
</g>
<g>
</g>
<g>
</g>
<g>
</g>
<g>
</g>
<g>
</g>
<g>
</g>
<g>
</g>
</svg>
