<?xml version="1.0" encoding="iso-8859-1"?>
<!-- Generator: Adobe Illustrator 19.0.0, SVG Export Plug-In . SVG Version: 6.00 Build 0)  -->
<svg version="1.1" id="Layer_1" xmlns="http://www.w3.org/2000/svg" xmlns:xlink="http://www.w3.org/1999/xlink" x="0px" y="0px"
	 viewBox="0 0 512 512" style="enable-background:new 0 0 512 512;" xml:space="preserve">
<path style="fill:#BFE6EF;" d="M512,402.282c0,16.716-13.55,30.267-30.265,30.267H30.265C13.55,432.549,0,418.996,0,402.282V109.717
	c0-16.716,13.55-30.266,30.265-30.266h451.469c16.716,0,30.265,13.551,30.265,30.266v292.565H512z"/>
<path style="opacity:0.15;fill:#202121;enable-background:new    ;" d="M21.517,402.282V109.717
	c0-16.716,13.552-30.266,30.267-30.266h-21.52C13.55,79.451,0,93.003,0,109.717v292.563c0,16.716,13.55,30.267,30.265,30.267h21.52
	C35.07,432.549,21.517,418.996,21.517,402.282z"/>
<g>
	<path style="fill:#0078C1;" d="M353.414,200.412c10.111-5.055,20.774-10.569,32.568-14.502
		c-10.106-14.037-17.968-30.322-19.091-53.343c-15.159,10.67-29.197,22.362-42.672,34.715
		C335.443,176.267,346.115,188.058,353.414,200.412z"/>
	<path style="fill:#0078C1;" d="M331.906,212.822c-36.381,23.19-63.861,55.684-81.448,98.463
		c-15.61-23.455-29.117-48.465-66.992-49.661c6.005-4.425,12.089-8.772,17.302-13.989c5.878-5.747,10.706-12.545,13.172-21.704
		c0,0,4.482,2.787,10.444,8.508c3.909,3.67,7.467,7.687,10.642,12.09c4.539,6.106,8.998,13.611,12.456,22.565
		c17.124-34.623,39.33-64.582,65.152-90.611c3.608-3.622,7.278-7.168,11.019-10.638c-0.004-0.006-0.011-0.01-0.018-0.014
		c0.194-0.18,0.383-0.368,0.581-0.548c-19.585-14.683-43.383-23.576-69.866-24.117c-0.855-0.018-1.711-0.026-2.57-0.026
		c-65.135,0-117.916,52.779-117.916,117.915c0,65.133,52.781,117.914,117.916,117.914c32.741,0,62.358-13.34,83.722-34.878
		c21.465-21.355,34.753-50.921,34.753-83.597c0-21.9-6.176-42.676-16.844-60.081C345.944,204.236,338.769,208.372,331.906,212.822z"
		/>
</g>
<g>
</g>
<g>
</g>
<g>
</g>
<g>
</g>
<g>
</g>
<g>
</g>
<g>
</g>
<g>
</g>
<g>
</g>
<g>
</g>
<g>
</g>
<g>
</g>
<g>
</g>
<g>
</g>
<g>
</g>
</svg>
