<?xml version="1.0" encoding="iso-8859-1"?>
<!-- Generator: Adobe Illustrator 19.0.0, SVG Export Plug-In . SVG Version: 6.00 Build 0)  -->
<svg version="1.1" id="Layer_1" xmlns="http://www.w3.org/2000/svg" xmlns:xlink="http://www.w3.org/1999/xlink" x="0px" y="0px"
	 viewBox="0 0 512 512" style="enable-background:new 0 0 512 512;" xml:space="preserve">
<path style="fill:#E7E8E3;" d="M512,402.282c0,16.716-13.55,30.267-30.265,30.267H30.265C13.55,432.549,0,418.996,0,402.282V109.717
	c0-16.716,13.55-30.266,30.265-30.266h451.469c16.716,0,30.265,13.551,30.265,30.266v292.565H512z"/>
<path style="opacity:0.15;fill:#202121;enable-background:new    ;" d="M21.517,402.282V109.717
	c0-16.716,13.552-30.266,30.267-30.266h-21.52C13.55,79.451,0,93.003,0,109.717v292.565c0,16.716,13.55,30.267,30.265,30.267h21.52
	C35.07,432.549,21.517,418.996,21.517,402.282z"/>
<path style="fill:#005EB6;" d="M226.222,219.191c0-26.482,12.198-50.109,31.281-65.581c-14.504-11.759-32.983-18.813-53.107-18.813
	c-46.609,0-84.393,37.783-84.393,84.394c0,46.608,37.784,84.39,84.393,84.39c20.124,0,38.603-7.049,53.107-18.807
	C238.419,269.296,226.222,245.67,226.222,219.191z"/>
<path style="fill:#0099DF;" d="M310.611,134.796c-20.128,0-38.605,7.053-53.109,18.813c19.083,15.471,31.282,39.099,31.282,65.581
	c0,26.479-12.2,50.106-31.282,65.582c14.504,11.758,32.981,18.807,53.109,18.807c46.609,0,84.391-37.782,84.391-84.39
	C395.002,172.581,357.22,134.796,310.611,134.796z"/>
<path style="fill:#2271CE;" d="M288.785,219.191c0-26.482-12.2-50.109-31.282-65.581c-19.083,15.471-31.281,39.099-31.281,65.581
	c0,26.479,12.198,50.106,31.281,65.582C276.585,269.296,288.785,245.67,288.785,219.191z"/>
<g>
	<path style="fill:#34495E;" d="M158.974,340.403c-14.509,0-26.311,11.641-26.311,25.951c0,14.372,11.803,26.063,26.311,26.063
		c5.528,0,10.93-1.73,15.619-5.001c0.233-0.162,0.306-0.473,0.171-0.721l-6.035-11.138c-0.085-0.156-0.237-0.26-0.413-0.286
		c-0.176-0.023-0.349,0.035-0.474,0.163c-2.242,2.286-5.084,3.495-8.222,3.495c-6.237,0-12.916-4.962-12.916-12.35
		c0-7.76,6.487-12.397,12.761-12.397c3.314,0,6.283,1.29,8.357,3.633c0.119,0.137,0.304,0.203,0.479,0.185
		c0.18-0.021,0.339-0.126,0.426-0.285l6.25-11.361c0.135-0.246,0.067-0.552-0.159-0.718
		C170.139,342.212,164.661,340.403,158.974,340.403z"/>
	<path style="fill:#34495E;" d="M190.059,321.496c-4.139,0-7.506,3.367-7.506,7.507c0,4.141,3.367,7.507,7.506,7.507
		c4.142,0,7.509-3.367,7.509-7.507C197.567,324.863,194.2,321.496,190.059,321.496z"/>
	<path style="fill:#34495E;" d="M197.011,341.963h-13.902c-0.308,0-0.557,0.249-0.557,0.557v48.004c0,0.307,0.248,0.557,0.557,0.557
		h13.902c0.306,0,0.557-0.249,0.557-0.557v-48.004C197.567,342.212,197.317,341.963,197.011,341.963z"/>
	<path style="fill:#34495E;" d="M241.809,342.106c-2.491-0.896-5.278-1.368-8.054-1.368c-6.609,0-12.205,2.213-15.544,6.108
		l-1.604-4.513c-0.078-0.223-0.289-0.371-0.524-0.371H205.63c-0.308,0-0.557,0.249-0.557,0.557v48.004
		c0,0.307,0.248,0.557,0.557,0.557h13.47c0.306,0,0.557-0.249,0.557-0.557l-0.009-26.409c1.028-5.65,5.813-9.75,11.376-9.75
		c1.713,0,3.424,0.382,5.087,1.135c0.135,0.063,0.292,0.065,0.433,0.012c0.139-0.055,0.25-0.163,0.308-0.301l5.28-12.363
		c0.061-0.141,0.061-0.301-0.002-0.441C242.069,342.268,241.954,342.158,241.809,342.106z"/>
	<path style="fill:#34495E;" d="M285.881,342.106c-2.491-0.896-5.278-1.368-8.054-1.368c-6.609,0-12.204,2.213-15.544,6.108
		l-1.604-4.513c-0.078-0.223-0.289-0.371-0.524-0.371h-10.453c-0.308,0-0.557,0.249-0.557,0.557v48.004
		c0,0.307,0.248,0.557,0.557,0.557h13.47c0.306,0,0.557-0.249,0.557-0.557l-0.009-26.409c1.028-5.65,5.813-9.75,11.376-9.75
		c1.713,0,3.424,0.382,5.087,1.135c0.135,0.063,0.292,0.065,0.433,0.012c0.139-0.055,0.25-0.163,0.308-0.301l5.28-12.363
		c0.061-0.141,0.061-0.301-0.002-0.441C286.141,342.268,286.027,342.158,285.881,342.106z"/>
	<path style="fill:#34495E;" d="M339.896,341.963h-13.793c-0.308,0-0.557,0.249-0.557,0.557v23.501c0,3.063-1.054,6.101-2.881,8.321
		c-1.911,2.183-4.574,3.486-7.123,3.486c-2.557,0-5.196-1.274-7.211-3.459c-1.776-2.294-2.794-5.337-2.794-8.347V342.52
		c0-0.307-0.248-0.557-0.557-0.557h-13.794c-0.308,0-0.557,0.249-0.557,0.557v23.835c0,13.884,11.639,26.063,24.911,26.063
		c13.27,0,24.911-12.179,24.911-26.063V342.52C340.452,342.212,340.202,341.963,339.896,341.963z"/>
	<path style="fill:#34495E;" d="M372.297,361.485c-1.058-0.372-2.105-0.697-3.1-1.006c-4.35-1.351-6.794-2.227-6.446-4.525
		c0.283-2.251,1.687-3.44,4.06-3.44c2.815,0,6.685,1.712,10.896,4.821c0.124,0.091,0.28,0.127,0.435,0.099
		c0.155-0.03,0.287-0.121,0.37-0.255l6.25-10.134c0.161-0.26,0.08-0.602-0.18-0.765c-6.261-3.907-10.676-5.766-18.828-5.766
		c-9.717,0-17.044,6.511-17.044,15.146c0,9.769,6.8,12.723,15.687,15.566c3.868,1.249,6.404,2.291,6.404,5.261
		c0,2.245-1.685,3.585-4.504,3.585c-2.919,0-7.722-1.646-11.65-6.284c-0.102-0.12-0.25-0.191-0.408-0.197
		c-0.155,0.01-0.308,0.059-0.417,0.171l-8.619,9.022c-0.207,0.216-0.207,0.557,0.002,0.771c5.526,5.712,13.513,8.858,22.491,8.858
		c9.422,0,17.69-7.287,17.69-15.594C385.385,369.612,380.606,364.019,372.297,361.485z"/>
</g>
<g>
</g>
<g>
</g>
<g>
</g>
<g>
</g>
<g>
</g>
<g>
</g>
<g>
</g>
<g>
</g>
<g>
</g>
<g>
</g>
<g>
</g>
<g>
</g>
<g>
</g>
<g>
</g>
<g>
</g>
</svg>
