<?xml version="1.0" encoding="iso-8859-1"?>
<!-- Generator: Adobe Illustrator 19.0.0, SVG Export Plug-In . SVG Version: 6.00 Build 0)  -->
<svg version="1.1" id="Layer_1" xmlns="http://www.w3.org/2000/svg" xmlns:xlink="http://www.w3.org/1999/xlink" x="0px" y="0px"
	 viewBox="0 0 512 512" style="enable-background:new 0 0 512 512;" xml:space="preserve">
<path style="fill:#0099DF;" d="M512,402.282c0,16.716-13.55,30.267-30.265,30.267H30.265C13.55,432.549,0,418.996,0,402.282V109.717
	c0-16.716,13.55-30.266,30.265-30.266h451.469c16.716,0,30.265,13.551,30.265,30.266v292.565H512z"/>
<path style="opacity:0.15;fill:#202121;enable-background:new    ;" d="M21.517,402.282V109.717
	c0-16.716,13.552-30.266,30.267-30.266h-21.52C13.55,79.451,0,93.003,0,109.717v292.565c0,16.716,13.55,30.267,30.265,30.267h21.52
	C35.07,432.549,21.517,418.996,21.517,402.282z"/>
<g>
	<path style="fill:#E7E8E3;" d="M450.443,335.128h-387.9c-4.61,0-8.348-3.736-8.348-8.348c0-4.611,3.738-8.348,8.348-8.348h387.9
		c4.61,0,8.348,3.736,8.348,8.348C458.791,331.392,455.054,335.128,450.443,335.128z"/>
	<path style="fill:#E7E8E3;" d="M450.443,375.506h-387.9c-4.61,0-8.348-3.736-8.348-8.348c0-4.611,3.738-8.348,8.348-8.348h387.9
		c4.61,0,8.348,3.736,8.348,8.348C458.791,371.77,455.054,375.506,450.443,375.506z"/>
</g>
<path style="fill:#D3000B;" d="M320.426,168.339h8.737c4.311-4.312,9.107-8.304,14.263-11.384c1.852-1.046,3.774-2,5.778-2.849
	c6.885-3.155,14.339-4.608,22.076-4.644c7.737,0.036,15.193,1.488,22.365,4.644c7.263,3.194,13.654,7.844,19.46,13.943l0.146,0.289
	h17.139l-0.436-0.869c-6.681-9.296-15.393-17.139-25.853-22.368c-10.457-5.81-21.205-8.714-32.533-8.714
	c-11.326,0-22.365,2.616-32.824,8.135c-10.457,5.516-19.17,13.069-25.85,22.656l-0.58,1.161h3.193H320.426z"/>
<g>
	<polygon style="fill:#FFFFFF;" points="323.061,182.283 323.061,215.107 323.061,252.577 337.585,252.577 337.585,206.681 
		337.585,185.479 337.585,182.283 337.585,179.959 323.061,179.959 	"/>
	<polygon style="fill:#FFFFFF;" points="407.3,179.959 407.3,184.897 407.3,209.588 407.3,252.577 421.821,252.577 421.821,219.754 
		421.821,179.959 	"/>
	<path style="fill:#FFFFFF;" d="M313.634,190.575l-0.159-0.159c-6.68-8.132-15.104-12.199-25.272-12.199
		c-10.748,0-19.46,3.194-26.433,9.586c-7.552,6.972-11.329,15.977-11.329,27.593c0,11.619,3.777,20.624,11.329,27.596
		c6.972,6.391,15.685,9.586,26.433,9.586c10.168,0,18.591-4.067,25.272-12.2l0.292-0.29l-4.213-5.083l-3.919-4.794
		c-0.009,0.01-0.018,0.02-0.026,0.029l-0.265-0.319l-0.292,0.29c-5.52,5.228-11.329,8.134-17.426,8.134
		c-6.391,0-11.911-2.324-15.978-6.679c-4.356-4.358-6.389-9.877-6.389-16.558c0-6.682,2.032-12.201,6.389-16.557
		c4.359-4.359,9.587-6.391,15.978-6.391c6.098,0,11.906,2.905,17.426,8.134l0.292,0.291l8.424-9.876l-0.098-0.097l0.098-0.195
		L313.634,190.575z"/>
	<path style="fill:#FFFFFF;" d="M384.641,238.926c-4.646,0-6.389-2.616-6.389-8.135v-30.789v-8.424h14.524v-11.619h-14.524v-8.713
		v-14.232l-14.524,7.841v15.104h-14.524v11.619h14.524v8.424v33.405c0,5.52,0.869,10.165,4.065,13.361
		c2.906,3.485,6.683,5.228,11.619,5.228c4.937,0,9.296-0.87,13.072-3.196h0.292v-0.291l3.193-13.651l-0.872,0.579
		C391.032,237.763,388.126,238.926,384.641,238.926z"/>
</g>
<path style="fill:#FFC715;" d="M162.993,224.985c0,4.037-3.276,7.308-7.308,7.308H65.002c-4.037,0-7.308-3.271-7.308-7.308v-70.667
	c0-4.037,3.271-7.306,7.308-7.306h90.683c4.033,0,7.308,3.27,7.308,7.306V224.985z"/>
<g>
	<polygon style="fill:#FFA617;" points="86.044,232.293 102.739,232.293 102.739,223.945 102.739,155.359 102.739,147.011 
		86.044,147.011 86.044,155.359 86.044,167.089 66.041,167.089 57.693,167.089 57.693,183.785 66.041,183.785 86.044,183.785 
		86.044,195.519 66.041,195.519 57.693,195.519 57.693,212.215 66.041,212.215 86.044,212.215 86.044,223.945 	"/>
	<path style="fill:#FFA617;" d="M154.645,183.785h8.348v-16.696h-8.348h-15.92v-11.73v-8.348H122.03v8.348v48.509
		c0,4.611,3.736,8.348,8.348,8.348h24.268h8.348v-16.696h-8.348h-15.92v-11.735H154.645z"/>
</g>
<path style="opacity:0.15;fill:#202121;enable-background:new    ;" d="M73.069,224.985v-70.667c0-4.037,3.271-7.306,7.308-7.306
	H65.002c-4.037,0-7.308,3.27-7.308,7.306v70.667c0,4.037,3.271,7.308,7.308,7.308h15.376
	C76.341,232.293,73.069,229.022,73.069,224.985z"/>
<g>
</g>
<g>
</g>
<g>
</g>
<g>
</g>
<g>
</g>
<g>
</g>
<g>
</g>
<g>
</g>
<g>
</g>
<g>
</g>
<g>
</g>
<g>
</g>
<g>
</g>
<g>
</g>
<g>
</g>
</svg>
