<?xml version="1.0" encoding="iso-8859-1"?>
<!-- Generator: Adobe Illustrator 19.0.0, SVG Export Plug-In . SVG Version: 6.00 Build 0)  -->
<svg version="1.1" id="Layer_1" xmlns="http://www.w3.org/2000/svg" xmlns:xlink="http://www.w3.org/1999/xlink" x="0px" y="0px"
	 viewBox="0 0 512 512" style="enable-background:new 0 0 512 512;" xml:space="preserve">
<path style="fill:#E7E8E3;" d="M512,402.282c0,16.716-13.55,30.267-30.265,30.267H30.265C13.55,432.549,0,418.996,0,402.282V109.717
	c0-16.716,13.55-30.266,30.265-30.266h451.469c16.716,0,30.265,13.551,30.265,30.266v292.565H512z"/>
<path style="opacity:0.15;fill:#202121;enable-background:new    ;" d="M21.517,402.282V109.717
	c0-16.716,13.552-30.266,30.267-30.266h-21.52C13.55,79.451,0,93.003,0,109.717v292.565c0,16.716,13.55,30.267,30.265,30.267h21.52
	C35.07,432.549,21.517,418.996,21.517,402.282z"/>
<path style="fill:#A23C42;" d="M285.528,378.087h-169.86c-4.611,0-8.348-3.736-8.348-8.348c0-4.611,3.736-8.348,8.348-8.348h169.86
	c4.611,0,8.348,3.736,8.348,8.348C293.876,374.35,290.139,378.087,285.528,378.087z"/>
<g>
	<path style="fill:#9A847A;" d="M395.057,378.087h-83.911c-4.611,0-8.348-3.736-8.348-8.348c0-4.611,3.736-8.348,8.348-8.348h83.911
		c4.611,0,8.348,3.736,8.348,8.348C403.405,374.35,399.667,378.087,395.057,378.087z"/>
	<ellipse style="fill:#9A847A;" cx="255.577" cy="230.289" rx="46.704" ry="44.611"/>
	<ellipse style="fill:#9A847A;" cx="303.716" cy="284.171" rx="18.977" ry="16.155"/>
	<ellipse style="fill:#9A847A;" cx="331.731" cy="310.561" rx="12.151" ry="10.34"/>
</g>
<path style="fill:#A23C42;" d="M336.93,147.516c-0.239-0.198-0.518-0.323-0.805-0.378c-3.074-2.515-6.603-4.186-10.252-4.846
	c-0.107-0.02-0.215-0.029-0.324-0.029H181.761c-0.061,0-0.119,0.003-0.18,0.01c-11.924,1.192-19.916,13.556-20.482,24.418
	l0.002,122.339c0.402,8.47,5.111,16.712,12.081,21.267c0.176,0.311,0.441,0.569,0.769,0.731c2.15,1.072,4.135,1.818,6.067,2.283
	c0,0,0.128,0.03,0.132,0.031c0.752,0.175,1.471,0.306,2.192,0.394l0.365,0.04c0.824,0.09,1.572,0.136,2.285,0.136h66.242
	c1,0,1.811-0.81,1.811-1.811v-19.528c-25.531-0.954-47.135-17.207-55.928-39.863c-2.311-5.35-3.824-11.218-4.409-17.342
	c-0.515-3.6-0.515-7.732,0.004-11.368c1.011-8.084,3.446-15.722,7.009-22.307c10.35-20.246,31.396-34.116,55.693-34.116
	c34.532,0,62.529,27.994,62.529,62.529c0,5.655-0.766,11.129-2.172,16.341c0.061,0.176,0.139,0.347,0.255,0.5
	c0.342,0.456,0.878,0.723,1.448,0.723h26.928c1,0,1.811-0.811,1.811-1.811v-75.28C347.281,162.199,343.561,152.946,336.93,147.516z"
	/>
<g>
</g>
<g>
</g>
<g>
</g>
<g>
</g>
<g>
</g>
<g>
</g>
<g>
</g>
<g>
</g>
<g>
</g>
<g>
</g>
<g>
</g>
<g>
</g>
<g>
</g>
<g>
</g>
<g>
</g>
</svg>
