<?xml version="1.0" encoding="iso-8859-1"?>
<!-- Generator: Adobe Illustrator 19.0.0, SVG Export Plug-In . SVG Version: 6.00 Build 0)  -->
<svg version="1.1" id="Layer_1" xmlns="http://www.w3.org/2000/svg" xmlns:xlink="http://www.w3.org/1999/xlink" x="0px" y="0px"
	 viewBox="0 0 512 512" style="enable-background:new 0 0 512 512;" xml:space="preserve">
<path style="fill:#0069AA;" d="M512,402.282c0,16.716-13.55,30.267-30.265,30.267H30.265C13.55,432.549,0,418.996,0,402.282V109.717
	c0-16.716,13.55-30.266,30.265-30.266h451.469c16.716,0,30.265,13.551,30.265,30.266v292.565H512z"/>
<rect y="308.179" style="fill:#34495E;" width="512" height="72.014"/>
<path style="opacity:0.15;fill:#202121;enable-background:new    ;" d="M21.517,402.282V109.717
	c0-16.716,13.552-30.266,30.267-30.266h-21.52C13.55,79.451,0,93.003,0,109.717v292.565c0,16.716,13.55,30.267,30.265,30.267h21.52
	C35.07,432.549,21.517,418.996,21.517,402.282z"/>
<g>
	<path style="fill:#FFFFFF;" d="M368.996,182.984h-98.728c-4.611,0-8.348-3.736-8.348-8.348s3.736-8.348,8.348-8.348h98.728
		c4.611,0,8.348,3.736,8.348,8.348S373.606,182.984,368.996,182.984z"/>
	<path style="fill:#FFFFFF;" d="M452.289,217.645H270.267c-4.611,0-8.348-3.736-8.348-8.348c0-4.61,3.736-8.348,8.348-8.348h182.022
		c4.611,0,8.348,3.738,8.348,8.348C460.636,213.908,456.9,217.645,452.289,217.645z"/>
	<path style="fill:#FFFFFF;" d="M81.528,194.061c0,16.135,9.889,29.666,23.942,34.869v-69.739
		C91.418,164.394,81.528,177.926,81.528,194.061z"/>
	<path style="fill:#FFFFFF;" d="M155.952,194.061c0-16.135-9.887-29.666-23.944-34.869v69.739
		C146.065,223.727,155.952,209.673,155.952,194.061z"/>
	<path style="fill:#FFFFFF;" d="M186.791,140.596c-0.046-0.046-0.089-0.093-0.13-0.141c-0.885-0.545-1.783-1.069-2.691-1.579
		c-8.126-4.699-17.239-7.763-26.729-8.878c-2.511-0.469-5.024-0.474-7.533-0.474h-0.524h-30.185h-0.518
		c-35.913,0-65.059,26.544-65.059,65.059c0,15.612,5.727,30.185,15.615,41.114l0.86,0.866c11.933,13.497,29.5,22.034,49.1,22.034
		h30.185c35.394,0,67.659-28.625,67.659-64.013C216.524,170.966,204.266,151.853,186.791,140.596z M119.246,253.948
		c-33.074,0-59.887-26.813-59.887-59.887c0-33.075,26.813-59.888,59.887-59.888c33.076,0,59.89,26.813,59.89,59.888
		C179.134,227.134,152.322,253.948,119.246,253.948z"/>
</g>
<g>
</g>
<g>
</g>
<g>
</g>
<g>
</g>
<g>
</g>
<g>
</g>
<g>
</g>
<g>
</g>
<g>
</g>
<g>
</g>
<g>
</g>
<g>
</g>
<g>
</g>
<g>
</g>
<g>
</g>
</svg>
