<?xml version="1.0" encoding="iso-8859-1"?>
<!-- Generator: Adobe Illustrator 19.0.0, SVG Export Plug-In . SVG Version: 6.00 Build 0)  -->
<svg version="1.1" id="Layer_1" xmlns="http://www.w3.org/2000/svg" xmlns:xlink="http://www.w3.org/1999/xlink" x="0px" y="0px"
	 viewBox="0 0 512 512" style="enable-background:new 0 0 512 512;" xml:space="preserve">
<path style="fill:#F79F1A;" d="M512,402.282c0,16.716-13.55,30.267-30.265,30.267H30.265C13.55,432.549,0,418.996,0,402.282V109.717
	c0-16.716,13.55-30.266,30.265-30.266h451.469c16.716,0,30.265,13.551,30.265,30.266v292.565H512z"/>
<path style="opacity:0.15;fill:#202121;enable-background:new    ;" d="M21.517,402.282V109.717
	c0-16.716,13.552-30.266,30.267-30.266h-21.52C13.55,79.451,0,93.003,0,109.717v292.565c0,16.716,13.55,30.267,30.265,30.267h21.52
	C35.07,432.549,21.517,418.996,21.517,402.282z"/>
<g>
	<path style="fill:#E7E8E3;" d="M136.231,205.961c-13.291,0-22.154,9.525-24.37,23.483h46.746
		C157.941,216.595,148.858,205.961,136.231,205.961z"/>
	<path style="fill:#E7E8E3;" d="M393.963,327.485c0.628,0.04,1.284,0.063,1.973,0.063c0.796,0,1.592,0,2.347-0.037
		c3.056-0.393,7.157-1.779,10.339-6.005c0.757-1.111,1.515-2.419,2.274-3.932c0.233-0.531,0.454-0.983,0.67-1.4
		c1.202-2.592,2.402-5.682,3.604-9.287l27.783-80.495h7.121v-3.561h-24.222v3.561h13.535l-18.518,53.426l-22.083-53.426h11.395
		v-2.848h-32.769v2.848h5.7l30.631,73.374c0,0-6.744,24.595-14.93,24.206h-0.016c-0.534-0.027-1.076-0.164-1.619-0.417
		c-0.372-0.21-0.766-0.518-1.243-0.994c-1.421-1.426-2.135-3.561-3.561-7.839l-4.274-14.957h-3.561v24.218
		c0.961,0.963,2.231,1.771,3.837,2.38c-34.896-6.831-79.589-12.181-132.772-11.64c-30.996,0.248-60.691,1.968-88.437,5.151
		c30.976-12.619,52.819-43.01,52.819-78.521c0-5.108-0.479-10.101-1.343-14.96h2.765l26.357,74.8h7.839l15.669-45.591l14.96,45.591
		h7.835l27.069-74.8h3.561v-3.561h-22.083v3.561h12.822l-20.657,59.126l-19.948-59.126h14.248v-3.561H251.33v3.561h9.261
		l7.835,24.222l-12.109,34.904l-20.661-59.126h9.974v-2.848h-27.532c-8.185-38.263-42.174-66.961-82.881-66.961
		c-46.818,0-84.769,37.953-84.769,84.769c0,44.112,33.695,80.341,76.75,84.381c-35.216,6.383-66.128,15.531-90.998,27.458
		c0,0,54.852-18.522,219.404-18.522c88.33,0,118.961,1.426,219.4,17.809C475.858,352.479,447.108,338.448,393.963,327.485z
		 M74.2,240.963c0-35.223,28.134-60.479,62.03-60.479c41.206,0,61.808,31.015,60.036,70.005h-84.405
		c0.666,15.73,9.748,26.141,25.698,26.141c9.085,0,17.946-4.21,21.49-12.629h35.223c-6.867,26.585-31.457,38.104-57.155,38.104
		C99.676,302.107,74.2,279.51,74.2,240.963z"/>
	<path style="fill:#E7E8E3;" d="M356.046,255.6c-2.848,0.713-6.409,1.421-9.974,2.135c-3.561,0.713-6.409,1.426-9.97,2.139
		c-3.565,0.713-6.413,2.135-9.261,3.561c-2.853,1.426-4.988,3.561-6.413,6.413c-1.426,2.848-2.135,6.409-2.135,10.683
		c0,6.413,2.135,12.109,6.409,15.674c4.274,3.561,9.974,5.695,17.095,5.695c5.7,0,9.974-1.421,14.248-4.274
		c4.274-2.848,7.126-7.121,7.835-12.821h0.713v13.535h20.661v-3.561h-7.126v-53.511c0-15.366-10.371-20.713-19.839-22.211
		c-2.028-0.28-4.333-0.474-6.824-0.493c-6.906,0.052-13.119,1.821-16.445,2.976c-0.835,0.326-1.687,0.651-2.557,0.976l-0.004,0.002
		c-1.55,0.579-3.168,1.159-4.904,1.74v24.93v0.713h2.848c2.135-5.7,3.561-9.974,4.986-13.535c1.421-3.561,2.848-6.409,4.274-8.548
		s2.848-3.561,4.988-4.274c1.421-0.713,3.561-1.426,6.409-1.426c4.274,0,7.839,0.713,9.974,2.853
		c2.139,2.135,3.561,5.695,3.561,10.683v16.387C362.459,253.461,359.607,254.887,356.046,255.6z M364.594,268.422
		c0,8.548-1.421,15.669-4.986,20.657c-3.561,4.986-8.548,7.835-14.244,7.835c-4.274,0-7.126-1.421-9.261-3.561
		c-2.139-2.135-2.853-6.409-2.853-12.109s1.426-9.974,2.853-12.109c2.135-2.853,4.274-4.274,7.121-5.7
		c2.848-1.426,6.413-2.139,9.974-2.848c3.362-0.673,7.361-1.991,11.395-3.932V268.422z"/>
</g>
<g>
</g>
<g>
</g>
<g>
</g>
<g>
</g>
<g>
</g>
<g>
</g>
<g>
</g>
<g>
</g>
<g>
</g>
<g>
</g>
<g>
</g>
<g>
</g>
<g>
</g>
<g>
</g>
<g>
</g>
</svg>
