<?xml version="1.0" encoding="iso-8859-1"?>
<!-- Generator: Adobe Illustrator 19.0.0, SVG Export Plug-In . SVG Version: 6.00 Build 0)  -->
<svg version="1.1" id="Layer_1" xmlns="http://www.w3.org/2000/svg" xmlns:xlink="http://www.w3.org/1999/xlink" x="0px" y="0px"
	 viewBox="0 0 512 512" style="enable-background:new 0 0 512 512;" xml:space="preserve">
<path style="fill:#FFFFFF;" d="M512,402.281c0,16.716-13.55,30.267-30.265,30.267H30.265C13.55,432.548,0,418.996,0,402.281V109.718
	c0-16.716,13.55-30.266,30.265-30.266h451.47c16.716,0,30.265,13.551,30.265,30.266v292.563H512z"/>
<path style="opacity:0.15;fill:#202121;enable-background:new    ;" d="M21.517,402.281V109.718
	c0-16.716,13.552-30.266,30.267-30.266H30.265C13.55,79.452,0,93.003,0,109.718v292.563c0,16.716,13.55,30.267,30.265,30.267h21.519
	C35.07,432.548,21.517,418.996,21.517,402.281z"/>
<path style="fill:#1476C6;" d="M356.542,132.331h-13.356c-4.611,0-8.348-3.736-8.348-8.348s3.736-8.348,8.348-8.348h13.356
	c4.611,0,8.348,3.736,8.348,8.348S361.153,132.331,356.542,132.331z"/>
<path style="fill:#ED114C;" d="M393.644,132.331h-13.356c-4.611,0-8.348-3.736-8.348-8.348s3.736-8.348,8.348-8.348h13.356
	c4.611,0,8.348,3.736,8.348,8.348S398.255,132.331,393.644,132.331z"/>
<path style="fill:#F98E19;" d="M430.746,132.331h-13.356c-4.611,0-8.348-3.736-8.348-8.348s3.736-8.348,8.348-8.348h13.356
	c4.611,0,8.348,3.736,8.348,8.348S435.357,132.331,430.746,132.331z"/>
<path style="fill:#48C92D;" d="M467.846,132.331h-13.356c-4.611,0-8.348-3.736-8.348-8.348s3.736-8.348,8.348-8.348h13.356
	c4.611,0,8.348,3.736,8.348,8.348S472.457,132.331,467.846,132.331z"/>
<path style="fill:#1476C6;" d="M323.76,387.217H188.24c-4.611,0-8.348-3.736-8.348-8.348s3.736-8.348,8.348-8.348H323.76
	c4.611,0,8.348,3.736,8.348,8.348C332.107,383.48,328.371,387.217,323.76,387.217z"/>
<path style="fill:#48C92D;" d="M334.633,212.653c-3.161-13.034-7.506-26.066-13.43-38.312c-3.159-6.32-9.874-10.665-16.987-10.665
	c-2.765,0-5.526,0.791-7.898,1.975c-9.479,4.342-13.43,15.8-8.689,24.884c9.479,20.145,14.217,41.474,14.217,63.591
	c0,22.121-4.739,43.452-14.217,63.199c0,0.398-1.973,3.95-1.973,7.904c0,1.184,0,2.763,0.395,4.343
	c1.183,5.134,4.739,10.27,10.268,12.64c2.372,1.184,5.132,1.973,7.898,1.973c6.717,0,13.039-3.951,16.593-9.875
	c3.552-7.109,7.504-16.196,10.663-28.043c1.186-3.555,1.976-7.112,2.765-10.664c3.161-13.431,4.739-27.255,4.739-41.478
	C339.374,240.304,337.792,226.084,334.633,212.653z"/>
<path style="fill:#ED114C;" d="M256.747,193.3c-0.394-0.396-0.789-1.186-1.184-1.579c-1.184-1.582-2.765-3.161-4.343-3.951
	c-0.85-0.728-1.779-1.291-2.755-1.743c-0.004-0.077-0.009-0.155-0.011-0.23c-1.015-0.341-2.028-0.589-3.041-0.784
	c-0.071-0.014-0.144-0.029-0.213-0.043c-0.21-0.039-0.422-0.071-0.634-0.105c-0.417-0.068-0.839-0.12-1.266-0.158
	c-0.098-0.009-0.196-0.02-0.296-0.028c-0.552-0.041-1.106-0.069-1.661-0.069c-2.763,0-4.343,0.394-6.32,1.184
	c-1.973,0.79-4.343,1.973-6.322,3.948c-1.973,1.977-3.157,4.345-3.948,6.716c-1.578,4.344-1.578,10.665,1.581,15.402
	c6.32,9.877,9.874,21.331,11.059,33.181c0.397,3.16,0.397,6.318,0.397,9.48c0,15.009-3.952,29.625-11.854,42.661l-0.787,0.789
	c-0.431,0.859-0.739,1.838-0.997,2.865c-0.274,0.877-0.459,1.751-0.577,2.628c-0.002,0.011-0.004,0.023-0.007,0.036
	c0-0.002,0.002-0.003,0.002-0.006c-0.187,1.451-0.185,2.902-0.002,4.353c0.395,5.527,3.554,10.662,8.689,13.824
	c1.184,0.788,2.765,1.184,3.95,1.973c1.583,0.394,3.556,0.79,5.134,0.79c6.322,0,11.848-3.162,15.404-8.691
	c9.876-16.195,15.407-34.366,16.985-53.325c0-2.37,0.395-5.133,0.395-7.504C273.732,232.405,267.805,211.47,256.747,193.3z"/>
<path style="fill:#F98E19;" d="M301.059,237.538c-11.493-18.541-27.865-34.992-47.147-47.723c0.598,0.598,1.159,1.25,1.65,1.906
	c0.395,0.393,0.791,1.183,1.184,1.579c11.059,18.169,16.985,39.104,17.38,61.618c0,2.371-0.395,5.134-0.395,7.504
	c-0.05,0.602-0.116,1.201-0.174,1.802c8.211,16.351,12.494,34.765,12.494,53.892v5.532v0.394c0-1.973,0.789-4.344,1.183-6.318
	c0.395,0,0.395-0.398,0.395-0.398c9.479-19.748,14.217-41.079,14.217-63.199C301.846,246.624,301.451,241.094,301.059,237.538z"/>
<path style="fill:#1476C6;" d="M224.152,300.838c0.258-1.027,0.568-2.006,0.997-2.865l0.787-0.789
	c7.903-13.036,11.854-27.651,11.854-42.661c0-3.162,0-6.32-0.397-9.48c-0.032-0.318-0.071-0.636-0.107-0.954
	c-1.548-2.075-3.207-4.11-4.956-6.103c-0.004-0.004-0.009-0.01-0.016-0.016c-0.443-0.505-0.892-1.007-1.348-1.507
	c-5.305-5.88-11.295-11.297-17.804-16.121c-0.114-0.082-0.222-0.169-0.331-0.254c0,0.002,0,0.006,0.002,0.009
	c-4.754-3.498-9.778-6.685-15.015-9.491c-2.367-1.183-5.132-1.973-7.898-1.973c-6.318,0-11.849,3.556-15.006,9.086
	c-4.348,8.292-1.186,18.563,7.109,22.909c22.578,12.184,37.985,34.13,42.124,60.221
	C224.149,300.844,224.149,300.841,224.152,300.838z"/>
<g>
</g>
<g>
</g>
<g>
</g>
<g>
</g>
<g>
</g>
<g>
</g>
<g>
</g>
<g>
</g>
<g>
</g>
<g>
</g>
<g>
</g>
<g>
</g>
<g>
</g>
<g>
</g>
<g>
</g>
</svg>
