<?xml version="1.0" encoding="iso-8859-1"?>
<!-- Generator: Adobe Illustrator 19.0.0, SVG Export Plug-In . SVG Version: 6.00 Build 0)  -->
<svg version="1.1" id="Layer_1" xmlns="http://www.w3.org/2000/svg" xmlns:xlink="http://www.w3.org/1999/xlink" x="0px" y="0px"
	 viewBox="0 0 512 512" style="enable-background:new 0 0 512 512;" xml:space="preserve">
<path style="fill:#E7E8E3;" d="M512,402.282c0,16.716-13.55,30.267-30.265,30.267H30.265C13.55,432.549,0,418.996,0,402.282V109.717
	c0-16.716,13.55-30.266,30.265-30.266h451.469c16.716,0,30.265,13.551,30.265,30.266v292.565H512z"/>
<rect y="148.135" style="fill:#34495E;" width="512" height="72.014"/>
<rect y="220.16" style="fill:#FFFFFF;" width="512" height="44.555"/>
<path style="opacity:0.15;fill:#202121;enable-background:new    ;" d="M21.517,402.282V109.717
	c0-16.716,13.552-30.266,30.267-30.266h-21.52C13.55,79.451,0,93.003,0,109.717v292.565c0,16.716,13.55,30.267,30.265,30.267h21.52
	C35.07,432.549,21.517,418.996,21.517,402.282z"/>
<g>
	<path style="fill:#34495E;" d="M160.063,322.723H55.437c-4.611,0-8.348-3.736-8.348-8.348c0-4.611,3.736-8.348,8.348-8.348h104.626
		c4.611,0,8.348,3.736,8.348,8.348S164.674,322.723,160.063,322.723z"/>
	<path style="fill:#34495E;" d="M160.063,357.422H55.437c-4.611,0-8.348-3.738-8.348-8.348c0-4.611,3.736-8.348,8.348-8.348h104.626
		c4.611,0,8.348,3.736,8.348,8.348S164.674,357.422,160.063,357.422z"/>
	<path style="fill:#34495E;" d="M160.063,392.121H55.437c-4.611,0-8.348-3.738-8.348-8.348c0-4.611,3.736-8.348,8.348-8.348h104.626
		c4.611,0,8.348,3.736,8.348,8.348C168.411,388.383,164.674,392.121,160.063,392.121z"/>
</g>
<g>
	<polygon style="fill:#EE3725;" points="426.722,294.646 322.495,294.646 374.611,346.762 	"/>
	<polygon style="fill:#EE3725;" points="322.495,314.313 322.495,294.646 270.387,346.762 322.495,398.871 322.495,375.274 	"/>
	<polygon style="fill:#EE3725;" points="426.722,294.646 426.722,314.313 426.722,375.274 426.722,398.871 478.837,346.762 	"/>
	<polygon style="fill:#EE3725;" points="403.124,375.274 374.611,346.762 346.095,375.274 346.093,375.274 322.495,398.871 
		426.722,398.871 	"/>
</g>
<g>
</g>
<g>
</g>
<g>
</g>
<g>
</g>
<g>
</g>
<g>
</g>
<g>
</g>
<g>
</g>
<g>
</g>
<g>
</g>
<g>
</g>
<g>
</g>
<g>
</g>
<g>
</g>
<g>
</g>
</svg>
