<?xml version="1.0" encoding="iso-8859-1"?>
<!-- Generator: Adobe Illustrator 19.0.0, SVG Export Plug-In . SVG Version: 6.00 Build 0)  -->
<svg version="1.1" id="Layer_1" xmlns="http://www.w3.org/2000/svg" xmlns:xlink="http://www.w3.org/1999/xlink" x="0px" y="0px"
	 viewBox="0 0 512 512" style="enable-background:new 0 0 512 512;" xml:space="preserve">
<path style="fill:#E7E8E3;" d="M512,402.282c0,16.716-13.55,30.267-30.265,30.267H30.265C13.55,432.549,0,418.996,0,402.282V109.717
	c0-16.716,13.55-30.266,30.265-30.266h451.469c16.716,0,30.265,13.551,30.265,30.266v292.565H512z"/>
<path style="opacity:0.15;fill:#202121;enable-background:new    ;" d="M21.517,402.282V109.717
	c0-16.716,13.552-30.266,30.267-30.266h-21.52C13.55,79.451,0,93.003,0,109.717v292.563c0,16.716,13.55,30.267,30.265,30.267h21.52
	C35.07,432.549,21.517,418.996,21.517,402.282z"/>
<g>
	<path style="fill:#686868;" d="M384.308,207.664c-5.533-14.466-13.513-26.368-24.414-36.394
		c-5.387-4.668-11.613-8.848-18.502-12.419c-4.755-2.528-10.061-4.788-15.77-6.715c-13.439-4.617-28.496-7.17-43.548-7.386H128.869
		c-0.306,0-0.557,0.249-0.557,0.557v229.811c0,0.307,0.25,0.557,0.557,0.557h153.207h0.007c31.713-0.453,60.074-9.5,77.808-24.816
		c22.439-19.053,33.818-49.694,33.818-91.071C393.709,240.795,390.546,223.256,384.308,207.664z M146.45,162.886h131.371
		c1.209,0,2.404,0.017,3.592,0.041l0.55,0.013c14.259,0.354,27.635,2.605,39.752,6.685c10.398,3.652,19.417,8.784,26.807,15.249
		c19.348,17.198,28.752,41.701,28.752,74.908c-0.213,33.632-8.37,57.829-24.939,73.974c-16.424,16.002-40.797,23.78-74.513,23.78
		H146.45V162.886z"/>
	<rect x="158.664" y="272.974" style="fill:#686868;" width="42.552" height="72.348"/>
	<circle style="fill:#686868;" cx="179.935" cy="239.883" r="23.937"/>
</g>
<g>
	<path style="fill:#CC1B69;" d="M312.569,242.891c-0.253-0.721-0.563-1.611-0.759-2.197c-0.348-0.997-0.752-2.221-1.161-3.466
		c-0.582-1.764-1.183-3.59-1.665-4.875c-0.082-0.219-0.294-0.361-0.522-0.361l0,0h-0.002c-0.228,0-0.44,0.141-0.52,0.361
		c-0.483,1.283-1.083,3.105-1.663,4.866c-0.411,1.248-0.815,2.475-1.168,3.484c-0.114,0.337-0.254,0.779-0.4,1.233
		c-0.209,0.648-0.424,1.32-0.568,1.735c-0.059,0.169-0.032,0.357,0.071,0.504c0.105,0.147,0.274,0.234,0.454,0.234h7.645
		c0,0,0.016-0.001,0.022,0c0.308,0,0.557-0.249,0.557-0.557c0-0.119-0.037-0.229-0.1-0.319L312.569,242.891z"/>
	<path style="fill:#CC1B69;" d="M364.182,264.926c-0.105-0.106-0.248-0.165-0.395-0.165h-30.086v-42.296h11.652v29.234
		c0,0.307,0.25,0.557,0.557,0.557h17.45h0.016c0.315,0,0.563-0.249,0.563-0.557c0-0.068-0.011-0.131-0.032-0.19
		c-3.163-48.254-34.274-72.715-92.469-72.715H218.24c-0.306,0-0.557,0.249-0.557,0.557v34.226v8.332v0.539h8.646
		c10.741,0,18.815,6.737,18.815,20.501c0,12.022-6.156,20.966-18.815,20.966h-8.646v1.402v7.66v73.198
		c0,0.307,0.25,0.557,0.557,0.557h53.198c27.411,0,48.046-4.903,63.083-14.989c19.595-13.144,29.63-35.49,29.824-66.422
		C364.346,265.173,364.287,265.03,364.182,264.926z M281.52,229.864h-20.722c-0.308,0-0.557,0.249-0.557,0.557v8.513
		c0,0.307,0.248,0.557,0.557,0.557h20.722v7.397h-20.722c-0.308,0-0.557,0.249-0.557,0.557v8.509c0,0.307,0.248,0.557,0.557,0.557
		h20.722v7.4h-28.676v-41.443h28.676L281.52,229.864L281.52,229.864z M319.489,263.908c-4.313-11.836-4.652-11.837-5.122-11.837
		h-11.811c-0.467,0-0.809,0.001-5.123,11.837h-9.859l16.161-41.443h9.459l16.577,41.443H319.489L319.489,263.908z"/>
	<path style="fill:#CC1B69;" d="M236.026,243.82c0-8.363-2.904-13.706-11.965-13.706h-6.165h-0.213h-0.126v0.256v1.207v24.673h8.131
		C230.974,256.249,236.026,252.997,236.026,243.82z"/>
</g>
<g>
</g>
<g>
</g>
<g>
</g>
<g>
</g>
<g>
</g>
<g>
</g>
<g>
</g>
<g>
</g>
<g>
</g>
<g>
</g>
<g>
</g>
<g>
</g>
<g>
</g>
<g>
</g>
<g>
</g>
</svg>
