<?xml version="1.0" encoding="iso-8859-1"?>
<!-- Generator: Adobe Illustrator 19.0.0, SVG Export Plug-In . SVG Version: 6.00 Build 0)  -->
<svg version="1.1" id="Layer_1" xmlns="http://www.w3.org/2000/svg" xmlns:xlink="http://www.w3.org/1999/xlink" x="0px" y="0px"
	 viewBox="0 0 512 512" style="enable-background:new 0 0 512 512;" xml:space="preserve">
<path style="fill:#E7E8E3;" d="M512,402.282c0,16.716-13.55,30.267-30.265,30.267H30.265C13.55,432.549,0,418.996,0,402.282V109.717
	c0-16.716,13.55-30.266,30.265-30.266h451.469c16.716,0,30.265,13.551,30.265,30.266v292.565H512z"/>
<path style="opacity:0.15;fill:#202121;enable-background:new    ;" d="M21.517,402.282V109.717
	c0-16.716,13.552-30.266,30.267-30.266h-21.52C13.55,79.451,0,93.003,0,109.717v292.565c0,16.716,13.55,30.267,30.265,30.267h21.52
	C35.07,432.549,21.517,418.996,21.517,402.282z"/>
<path style="fill:#51B151;" d="M393.119,183.406c-13.332,0-27.635,4.026-38.248,14.244v-12.772h-26.913v12.381
	c-9.933-9.22-20.801-13.853-34.468-13.853c-17.363,0-29.206,7.707-35.232,14.329c-1.104,1.256-2.007,2.382-2.887,3.506
	c-8.661-12.9-26.702-17.705-49.92-17.705c-17.361,0-30.224,3.159-40.074,12.164c-12.139-7.576-26.7-12.295-46.989-12.295
	c-28.187,0-49.793,12.208-49.793,35.932c0,20.088,16.387,31.56,38.459,33.204l23.687,1.862c9.169,0.693,16.258,3.16,16.258,11.43
	c0,9.913-10.996,15.066-26.276,15.066c-17.872,0-30.522-5.153-42.07-15.066l-18.676,16.191
	c17.065,14.027,37.059,20.866,58.624,20.866c18.296,0,34.254-4.502,44.274-12.9c7.937,8.094,20.883,13.116,37.864,13.116
	c18.169,0,27.424-3.68,32.939-11.775h0.511v11.905h26.786V291.42c6.619,5.843,17.444,11.602,32.515,11.602
	c13.667,0,26.104-5.542,34.424-13.637v11.991c0,16.409-12.522,25.326-30.52,25.326c-10.23,0-19.485-4.85-25.978-10.563
	l-20.758,14.545c11.844,11.646,29.206,19.524,46.271,19.524c30.52,0,57.942-16.147,57.942-51.387v-9.827
	c11.42,10.65,27.167,14.113,41.854,14.113c17.874,0,35.446-7.143,48.563-20.477l-18.041-13.378
	c-7.853,7.143-20.801,11.862-31.033,11.862c-18.376,0-31.113-7.186-31.113-26.234h82.224c0,0,0.678-10.52,0.593-16.493
	C447.835,204.013,422.535,183.406,393.119,183.406L393.119,183.406z M234.189,261.764c0,18.226-7.639,20.262-30.011,20.262
	c-18.21,0-25.215-6.84-25.215-14.721c0-8.527,7.346-14.027,23.091-14.027h32.135L234.189,261.764L234.189,261.764z M234.189,232.586
	h-37.143c-14.261,0-25.13,3.982-32.344,10.348c-6.197-6.147-15.879-10.131-29.505-10.868l-22.115-1.428
	c-13.457-0.909-17.574-5.931-17.574-11.039c0-8.095,5.73-14.027,22.881-14.027c14.476,0,25.213,4.373,35.741,10.823l11.376-11.645
	l11.206,11.775c7.046-6.666,16.089-10.867,30.054-10.867c19.271,0,27.381,3.896,27.381,14.936v11.991L234.189,232.586
	L234.189,232.586z M322.527,270.64c-3.82,4.242-10.824,9.135-21.691,9.135c-11.122,0-19.357-4.893-23.178-9.135
	c-4.796-5.283-5.102-8.269-5.433-27.404c-0.169-19.265,0.637-22.339,5.433-27.664c3.822-4.199,12.056-9.134,23.178-9.134
	c10.868,0,17.902,4.934,21.691,9.134c4.84,5.367,5.433,8.614,5.433,27.664C327.958,262.068,327.365,265.357,322.527,270.64
	L322.527,270.64z M365.103,234.318c0-20.39,14.559-30.305,30.905-30.305c16.385,0,31.156,10.044,31.156,30.305H365.103z"/>
<g>
</g>
<g>
</g>
<g>
</g>
<g>
</g>
<g>
</g>
<g>
</g>
<g>
</g>
<g>
</g>
<g>
</g>
<g>
</g>
<g>
</g>
<g>
</g>
<g>
</g>
<g>
</g>
<g>
</g>
</svg>
