<?xml version="1.0" encoding="iso-8859-1"?>
<!-- Generator: Adobe Illustrator 19.0.0, SVG Export Plug-In . SVG Version: 6.00 Build 0)  -->
<svg version="1.1" id="Layer_1" xmlns="http://www.w3.org/2000/svg" xmlns:xlink="http://www.w3.org/1999/xlink" x="0px" y="0px"
	 viewBox="0 0 512 512" style="enable-background:new 0 0 512 512;" xml:space="preserve">
<path style="fill:#51B151;" d="M512,402.282c0,16.716-13.55,30.267-30.265,30.267H30.265C13.55,432.549,0,418.996,0,402.282V109.717
	c0-16.716,13.55-30.266,30.265-30.266h451.469c16.716,0,30.265,13.551,30.265,30.266v292.565H512z"/>
<path style="opacity:0.15;fill:#202121;enable-background:new    ;" d="M21.517,402.282V109.717
	c0-16.716,13.552-30.266,30.267-30.266h-21.52C13.55,79.451,0,93.003,0,109.717v292.565c0,16.716,13.55,30.267,30.265,30.267h21.52
	C35.07,432.549,21.517,418.996,21.517,402.282z"/>
<g>
	<path style="fill:#FFFFFF;" d="M59.272,270.962c3.87,1.992,11.198,4.84,17.697,4.84c5.528,0,8.432-2.847,8.432-6.263
		c0-3.415-2.213-5.836-8.432-8.968c-7.746-3.985-14.244-9.82-14.244-18.503c0-14.52,12.307-24.056,29.726-24.056
		c7.883,0,14.104,1.709,17.282,3.558l-4.7,14.519c-2.765-1.28-7.604-2.99-13.55-2.99c-5.252,0-8.711,2.278-8.711,6.121
		c0,2.848,2.767,5.267,8.159,7.829c7.465,3.843,15.209,9.537,15.209,19.217c0,15.941-13.135,24.624-31.108,24.481
		c-8.435-0.141-16.591-2.42-20.6-5.408L59.272,270.962z"/>
	<path style="fill:#FFFFFF;" d="M106.661,290.749l18.666-101.062h19.909l-7.604,40.425h0.276c5.67-6.406,12.72-10.534,21.57-10.534
		c10.506,0,17.006,6.833,17.006,18.789c0,3.273-0.554,8.683-1.245,12.526l-7.328,39.856H148l7.052-38.147
		c0.552-2.706,0.828-5.694,0.828-8.541c0-4.697-1.798-7.971-6.774-7.971c-7.052,0-14.102,8.825-16.591,22.775l-5.946,31.884H106.661
		z"/>
	<path style="fill:#FFFFFF;" d="M208.595,290.749c-17.28,0-28.759-11.529-28.759-28.752c0-24.055,16.315-43.984,40.371-43.984
		c18.252,0,28.759,12.811,28.759,28.753c0,25.337-17.006,43.983-40.232,43.983H208.595z M211.222,275.092
		c10.784,0,17.006-16.37,17.006-28.183c0-6.548-2.765-13.239-10.645-13.239c-11.474,0-17.282,17.082-17.282,27.9
		c0,8.113,4.01,13.522,10.784,13.522H211.222z"/>
	<path style="fill:#FFFFFF;" d="M240.732,317.97l13.135-70.886c1.522-8.255,3.041-20.354,3.872-27.472h17.834l-1.243,10.676h0.276
		c5.531-7.544,13.55-11.672,21.707-11.672c14.654,0,21.843,12.099,21.843,26.476c0,24.055-15.622,46.259-39.263,46.259
		c-5.394,0-10.093-1.422-12.444-2.847h-0.415l-5.392,29.466h-19.911V317.97z M269.215,272.563c2.211,1.992,5.116,3.273,9.126,3.273
		c10.644,0,18.942-15.515,18.942-29.181c0-5.551-2.352-11.386-8.711-11.386c-7.467,0-14.381,8.54-16.867,22.205L269.215,272.563z"/>
	<path style="fill:#FFFFFF;" d="M318.157,289.685l12.859-69.604h19.772l-12.72,69.604H318.157z M343.322,210.971
		c-5.809,0-10.093-4.271-10.093-10.676c0-7.401,5.67-12.383,12.168-12.383c6.222,0,10.645,4.127,10.645,10.675
		c0,7.828-5.807,12.384-12.581,12.384L343.322,210.971L343.322,210.971z"/>
	<path style="fill:#FFFFFF;" d="M351.468,289.69l9.954-53.947h-8.711l2.765-15.657h8.85l0.552-3.558
		c1.522-8.398,4.703-17.081,11.475-22.916c5.528-4.698,12.72-6.548,19.357-6.548c4.7,0,8.296,0.712,10.506,1.707l-3.456,16.227
		c-1.795-0.712-3.871-1.139-6.361-1.139c-6.498,0-10.506,5.836-11.75,12.811l-0.552,3.416h13.272l-2.904,15.657h-13.133
		l-9.956,53.947L351.468,289.69L351.468,289.69z"/>
	<path style="fill:#FFFFFF;" d="M421.939,220.394l4.148,30.318c0.969,7.259,1.658,12.241,2.213,16.653h0.278
		c1.517-4.27,3.039-8.825,5.944-16.368l12.305-30.603h21.015l-24.193,49.961c-8.987,18.504-17.006,31.173-25.994,39.856
		c-7.88,7.687-17.282,11.103-21.707,11.814l-4.424-17.508c3.18-0.996,7.604-2.705,11.474-5.551
		c4.564-3.273,8.435-7.402,11.064-12.099c0.55-0.997,0.55-1.85,0.274-3.273l-13.272-63.199h20.875V220.394z"/>
</g>
<g>
</g>
<g>
</g>
<g>
</g>
<g>
</g>
<g>
</g>
<g>
</g>
<g>
</g>
<g>
</g>
<g>
</g>
<g>
</g>
<g>
</g>
<g>
</g>
<g>
</g>
<g>
</g>
<g>
</g>
</svg>
