<?xml version="1.0" encoding="iso-8859-1"?>
<!-- Generator: Adobe Illustrator 19.0.0, SVG Export Plug-In . SVG Version: 6.00 Build 0)  -->
<svg version="1.1" id="Layer_1" xmlns="http://www.w3.org/2000/svg" xmlns:xlink="http://www.w3.org/1999/xlink" x="0px" y="0px"
	 viewBox="0 0 512 512" style="enable-background:new 0 0 512 512;" xml:space="preserve">
<path style="fill:#E7E8E3;" d="M512,402.282c0,16.716-13.55,30.267-30.265,30.267H30.265C13.55,432.549,0,418.996,0,402.282V109.717
	c0-16.716,13.55-30.266,30.265-30.266h451.469c16.716,0,30.265,13.551,30.265,30.266v292.565H512z"/>
<path style="opacity:0.15;fill:#202121;enable-background:new    ;" d="M21.517,402.282V109.717
	c0-16.716,13.552-30.266,30.267-30.266h-21.52C13.55,79.451,0,93.003,0,109.717v292.565c0,16.716,13.55,30.267,30.265,30.267h21.52
	C35.07,432.549,21.517,418.996,21.517,402.282z"/>
<g>
	<path style="fill:#999998;" d="M440.426,316.011H219.842c-4.611,0-8.348-3.736-8.348-8.348c0-4.611,3.736-8.348,8.348-8.348
		h220.585c4.611,0,8.348,3.736,8.348,8.348C448.774,312.274,445.037,316.011,440.426,316.011z"/>
	<path style="fill:#999998;" d="M440.426,356.389H219.842c-4.611,0-8.348-3.736-8.348-8.348c0-4.611,3.736-8.348,8.348-8.348
		h220.585c4.611,0,8.348,3.736,8.348,8.348C448.774,352.652,445.037,356.389,440.426,356.389z"/>
</g>
<g>
	<path style="fill:#B73091;" d="M249.483,169.621c-1.254,0-2.484,0.111-2.498,0.114c-20.989,0.437-31.366,9.893-31.722,28.905
		c-0.011,0.043-0.018,0.088-0.018,0.134v36.167c0,0.307,0.25,0.557,0.557,0.557h22.605c0.306,0,0.557-0.249,0.557-0.557v-28.483
		c0-11.451,0-15.736,13.024-16.169c0.301-0.01,0.539-0.256,0.539-0.557v-18.989C252.526,169.758,251.063,169.621,249.483,169.621z"
		/>
	<path style="fill:#B73091;" d="M351.787,146.806c-0.124-0.105-0.296-0.147-0.454-0.12l-22.606,4.07
		c-0.265,0.048-0.456,0.278-0.456,0.548v83.636c0,0.307,0.248,0.557,0.557,0.557h22.605c0.308,0,0.557-0.249,0.557-0.557v-87.707
		C351.987,147.069,351.915,146.912,351.787,146.806z"/>
	<path style="fill:#B73091;" d="M106.391,179.682c-6.229,0-9.387-2.094-9.387-6.224c0-6.677,9.448-6.677,13.005-6.677
		c6.613,0,15.25,1.934,20.621,3.587l6.781,2.259c0.057,0.019,0.116,0.028,0.176,0.028h0.905c0.308,0,0.557-0.249,0.557-0.557
		v-20.341c0-0.21-0.117-0.403-0.306-0.498l-0.989-0.488l-0.117-0.036c-7.07-2.21-15.865-4.962-30.809-4.962
		c-26.759,0.92-36.252,16.705-36.252,29.941c0,0.245,0.004,0.499,0.011,0.765c0.198,7.481,3.861,25.121,33.548,27.37
		c0.429,0,1.318,0.013,2.439,0.099c4.614,0.474,6.952,2.536,6.952,6.127c0,4.555-4.819,6.362-8.845,7.073
		c-2.137,0.316-4.418,0.491-6.589,0.504c-8.254-0.023-14.807-1.774-21.743-3.626c-1.663-0.444-3.346-0.895-5.08-1.328
		c-0.119-0.029-0.242-0.019-0.349,0.026l-0.1-0.024c-0.165-0.043-0.342-0.007-0.479,0.099c-0.139,0.105-0.217,0.268-0.217,0.44
		v20.799c0,0.255,0.174,0.479,0.422,0.54c9.643,2.41,20.489,3.632,32.235,3.632l0.126-0.003l0.324,0.003
		c26.307,0,38.081-14.812,38.081-29.492C141.309,192.114,128.6,181.531,106.391,179.682z"/>
	<path style="fill:#B73091;" d="M283.618,171.093h-22.607c-0.306,0-0.557,0.249-0.557,0.557v63.291c0,0.307,0.25,0.557,0.557,0.557
		h22.607c0.306,0,0.557-0.249,0.557-0.557v-63.291C284.174,171.341,283.924,171.093,283.618,171.093z"/>
	<path style="fill:#B73091;" d="M315.172,146.685l-13.566,2.259c-0.159,0.026-0.296,0.12-0.378,0.252l-8.669,1.56
		c-0.265,0.048-0.459,0.278-0.459,0.548v83.636c0,0.307,0.25,0.557,0.557,0.557h22.607c0.306,0,0.557-0.249,0.557-0.557v-87.707
		c0-0.163-0.071-0.318-0.198-0.425C315.498,146.704,315.335,146.656,315.172,146.685z"/>
	<path style="fill:#B73091;" d="M272.313,141.704c-6.65,0-11.858,5.21-11.858,11.859c0,6.65,5.209,11.858,11.858,11.858
		c6.65,0,11.861-5.209,11.861-11.858C284.174,146.914,278.963,141.704,272.313,141.704z"/>
	<path style="fill:#B73091;" d="M211.733,171.093h-27.578c-0.467,0-0.572,0.219-1.574,2.322c-1.626,3.41-5.326,11.169-11.432,18.824
		v-45.005c0-0.168-0.076-0.328-0.207-0.434c-0.132-0.107-0.308-0.147-0.47-0.11l-22.605,4.972c-0.256,0.057-0.437,0.283-0.437,0.543
		v82.735c0,0.307,0.248,0.557,0.557,0.557h22.605c0.308,0,0.557-0.249,0.557-0.557v-22.874c7.985,10.004,9.724,22.812,9.741,22.945
		c0.037,0.277,0.274,0.485,0.552,0.485h28.935c0.176,0,0.342-0.083,0.447-0.224c0.105-0.141,0.137-0.324,0.085-0.492
		c-2.554-8.521-13.646-29.35-15.241-32.327c8.74-10.95,13.728-23.61,15.617-28.403c0.352-0.897,0.689-1.747,0.819-1.988
		c0.114-0.102,0.185-0.25,0.185-0.414C212.29,171.341,212.039,171.093,211.733,171.093z"/>
</g>
<path style="fill:#AFAFAE;" d="M168.626,365.412c0,4.037-3.276,7.308-7.308,7.308H70.635c-4.037,0-7.308-3.271-7.308-7.308v-70.667
	c0-4.037,3.271-7.306,7.308-7.306h90.683c4.033,0,7.308,3.27,7.308,7.306L168.626,365.412L168.626,365.412z"/>
<g>
	<polygon style="fill:#999998;" points="91.676,372.72 108.371,372.72 108.371,364.373 108.371,295.786 108.371,287.438 
		91.676,287.438 91.676,295.786 91.676,307.516 71.674,307.516 63.327,307.516 63.327,324.212 71.674,324.212 91.676,324.212 
		91.676,335.947 71.674,335.947 63.327,335.947 63.327,352.642 71.674,352.642 91.676,352.642 91.676,364.373 	"/>
	<path style="fill:#999998;" d="M160.278,324.212h8.348v-16.696h-8.348h-15.92v-11.73v-8.348h-16.696v8.348v48.509
		c0,4.61,3.736,8.348,8.348,8.348h24.268h8.348v-16.696h-8.348h-15.92v-11.735H160.278z"/>
</g>
<path style="opacity:0.15;fill:#202121;enable-background:new    ;" d="M78.702,365.412v-70.667c0-4.037,3.271-7.306,7.308-7.306
	H70.635c-4.037,0-7.308,3.27-7.308,7.306v70.667c0,4.037,3.271,7.308,7.308,7.308H86.01
	C81.973,372.72,78.702,369.449,78.702,365.412z"/>
<g>
</g>
<g>
</g>
<g>
</g>
<g>
</g>
<g>
</g>
<g>
</g>
<g>
</g>
<g>
</g>
<g>
</g>
<g>
</g>
<g>
</g>
<g>
</g>
<g>
</g>
<g>
</g>
<g>
</g>
</svg>
