<?xml version="1.0" encoding="iso-8859-1"?>
<!-- Generator: Adobe Illustrator 19.0.0, SVG Export Plug-In . SVG Version: 6.00 Build 0)  -->
<svg version="1.1" id="Layer_1" xmlns="http://www.w3.org/2000/svg" xmlns:xlink="http://www.w3.org/1999/xlink" x="0px" y="0px"
	 viewBox="0 0 512 512" style="enable-background:new 0 0 512 512;" xml:space="preserve">
<path style="fill:#00A051;" d="M512,402.282c0,16.715-13.55,30.267-30.265,30.267H30.265C13.55,432.549,0,418.996,0,402.282V109.717
	c0-16.716,13.55-30.266,30.265-30.266h451.469c16.716,0,30.265,13.551,30.265,30.266v292.565H512z"/>
<path style="opacity:0.15;fill:#202121;enable-background:new    ;" d="M21.517,402.282V109.717
	c0-16.716,13.552-30.266,30.267-30.266h-21.52C13.55,79.451,0,93.003,0,109.717v292.565c0,16.715,13.55,30.267,30.265,30.267h21.52
	C35.07,432.549,21.517,418.996,21.517,402.282z"/>
<path style="fill:#FFFFFF;" d="M323.261,265.742c-0.572-14.328-4.01-28.082-9.741-40.694c-5.732-12.607-13.754-24.645-23.5-34.387
	l-28.074,26.948c0,0-0.007-0.009-0.009-0.012l-0.574,0.573c5.732,5.734,10.32,12.611,13.756,20.063
	c3.439,7.447,5.73,14.898,6.879,22.922c1.143,8.025,1.143,16.05-0.574,24.071c-1.722,8.025-4.585,15.477-8.024,22.353
	c-3.439,6.304-7.452,12.038-12.038,16.624c-4.582,4.582-10.317,8.595-16.046,12.033c-5.734,3.439-12.036,5.734-18.341,7.452
	c-8.598,2.291-17.193,2.865-25.791,1.72c-8.596-0.572-17.193-2.867-25.219-6.876c-8.024-3.444-15.471-8.599-21.205-14.903
	l-27.509,27.51c10.316,10.316,22.352,18.341,35.533,24.071c12.606,6.306,26.937,9.171,41.265,9.746
	c14.328,0.57,28.656-1.722,42.413-6.882c10.891-4.009,21.207-9.168,30.376-16.047c9.172-6.876,17.191-14.901,24.07-24.07
	c6.879-9.171,12.036-19.489,16.05-30.378C321.544,294.399,323.834,280.071,323.261,265.742z"/>
<path style="fill:#34495E;" d="M350.2,136.214c-13.183-5.73-27.511-9.168-41.842-9.168c-11.254-0.451-22.509,0.874-33.487,3.962
	c-0.337,0.091-0.672,0.185-1.008,0.28c-0.107,0.032-0.215,0.065-0.322,0.096c-2.531,0.732-5.063,1.564-7.593,2.538
	c-13.754,5.158-25.791,12.607-36.106,21.207c-10.318,8.021-18.342,18.34-24.646,28.656c-6.302,10.89-10.889,22.923-13.181,34.961
	c-2.294,12.035-2.865,24.645-1.148,37.255c1.722,12.607,5.161,24.645,10.891,35.534c5.159,10.889,12.036,20.631,20.63,29.226
	c-0.007-0.013-0.013-0.027-0.02-0.042c0.387,0.397,0.771,0.795,1.168,1.19l27.509-27.509c-5.729-5.732-10.889-12.611-14.328-20.06
	c-3.437-7.447-6.302-15.472-6.876-23.497c-1.143-8.024-0.574-16.62,1.148-24.645c1.717-8.025,4.585-16.049,9.167-22.926
	c4.013-6.878,9.746-13.755,16.624-18.911c6.876-5.733,14.903-10.319,24.07-13.185c8.598-2.864,18.342-4.581,27.509-4.013
	c8.6-0.57,17.768,1.72,26.368,5.16c8.598,3.438,16.62,9.168,23.495,15.475l27.513-27.512
	C375.42,149.967,363.383,141.942,350.2,136.214z"/>
<g>
</g>
<g>
</g>
<g>
</g>
<g>
</g>
<g>
</g>
<g>
</g>
<g>
</g>
<g>
</g>
<g>
</g>
<g>
</g>
<g>
</g>
<g>
</g>
<g>
</g>
<g>
</g>
<g>
</g>
</svg>
