
<svg width="512px" height="354px" viewBox="0 0 512 354" version="1.1" xmlns="http://www.w3.org/2000/svg" xmlns:xlink="http://www.w3.org/1999/xlink">
    <!-- Generator: Sketch 43 (38999) - http://www.bohemiancoding.com/sketch -->
    <desc>Created with Sketch.</desc>
    <defs></defs>
    <g id="Page-1" stroke="none" stroke-width="1" fill="none" fill-rule="evenodd">
        <g id="master-card" fill-rule="nonzero">
            <path d="M512,323.282 C512,339.998 498.45,353.549 481.735,353.549 L30.265,353.549 C13.55,353.549 0,339.996 0,323.282 L0,30.717 C0,14.001 13.55,0.451 30.265,0.451 L481.734,0.451 C498.45,0.451 511.999,14.002 511.999,30.717 L511.999,323.282 L512,323.282 Z" id="Shape" fill="#E7E8E3"></path>
            <rect id="Rectangle-path" fill="#34495E" x="0" y="69.135" width="512" height="72.014"></rect>
            <rect id="Rectangle-path" fill="#FFFFFF" x="0" y="141.16" width="512" height="44.555"></rect>
            <path d="M21.517,323.282 L21.517,30.717 C21.517,14.001 35.069,0.451 51.784,0.451 L30.264,0.451 C13.55,0.451 0,14.003 0,30.717 L0,323.282 C0,339.998 13.55,353.549 30.265,353.549 L51.785,353.549 C35.07,353.549 21.517,339.996 21.517,323.282 Z" id="Shape" fill="#202121" opacity="0.15"></path>
            <g id="Group" transform="translate(47.000000, 227.000000)" fill="#FFFFFF">
                <path d="M113.063,16.723 L8.437,16.723 C3.826,16.723 0.089,12.987 0.089,8.375 C0.089,3.764 3.825,0.027 8.437,0.027 L113.063,0.027 C117.674,0.027 121.411,3.763 121.411,8.375 C121.411,12.987 117.674,16.723 113.063,16.723 Z" id="Shape"></path>
                <path d="M113.063,51.422 L8.437,51.422 C3.826,51.422 0.089,47.686 0.089,43.074 C0.089,38.462 3.825,34.726 8.437,34.726 L113.063,34.726 C117.674,34.726 121.411,38.462 121.411,43.074 C121.411,47.686 117.674,51.422 113.063,51.422 Z" id="Shape"></path>
                <path d="M113.063,86.121 L8.437,86.121 C3.826,86.121 0.089,82.385 0.089,77.773 C0.089,73.162 3.825,69.425 8.437,69.425 L113.063,69.425 C117.674,69.425 121.411,73.161 121.411,77.773 C121.411,82.383 117.674,86.121 113.063,86.121 Z" id="Shape"></path>
            </g>
        </g>
    </g>
</svg>