<?xml version="1.0" encoding="iso-8859-1"?>
<!-- Generator: Adobe Illustrator 19.0.0, SVG Export Plug-In . SVG Version: 6.00 Build 0)  -->
<svg version="1.1" id="Layer_1" xmlns="http://www.w3.org/2000/svg" xmlns:xlink="http://www.w3.org/1999/xlink" x="0px" y="0px"
	 viewBox="0 0 512 512" style="enable-background:new 0 0 512 512;" xml:space="preserve">
<path style="fill:#1B7EC1;" d="M512,402.282c0,16.716-13.55,30.267-30.265,30.267H30.265C13.55,432.55,0,418.997,0,402.282V109.717
	c0-16.716,13.55-30.266,30.265-30.266h451.47c16.716,0,30.265,13.551,30.265,30.266L512,402.282L512,402.282z"/>
<path style="opacity:0.15;fill:#202121;enable-background:new    ;" d="M21.517,402.282V109.717
	c0-16.716,13.552-30.266,30.267-30.266h-21.52C13.55,79.451,0,93.002,0,109.717v292.564c0,16.716,13.55,30.267,30.265,30.267h21.52
	C35.07,432.55,21.517,418.997,21.517,402.282z"/>
<path style="fill:#FFFFFF;" d="M125.494,264.356c-3.348-14.069-7.366-28.133-11.384-42.197H92.674
	c-4.018,14.063-7.367,28.8-12.055,42.197l-8.037-42.197H50.478c6.03,24.782,11.385,50.234,15.403,76.353h22.775
	c5.359-14.733,9.377-30.809,14.068-45.545c4.018,14.736,9.374,30.141,13.392,45.545h22.774c5.36-25.453,10.715-50.9,16.746-76.353
	h-22.104C130.853,236.222,128.842,250.958,125.494,264.356z"/>
<g>
	<path style="fill:#48C92D;" d="M311.698,225.506c-12.059-7.367-54.924-3.348-54.924-3.348v74.346h6.697h16.744v-27.466
		c23.445,2.012,40.191-3.348,40.191-24.111C320.407,236.222,317.725,229.526,311.698,225.506z M286.284,254.081
		c-1.494-0.03-2.933-0.132-4.256-0.291c-0.381-0.049-0.761-0.095-1.141-0.154v-16.746c0.333-0.024,0.666-0.042,0.997-0.061
		c0.826-0.046,1.685-0.073,2.568-0.083c7.369-0.026,13.85,1.92,13.85,8.852C298.302,251.949,292.861,254.11,286.284,254.081z"/>
	<path style="fill:#48C92D;" d="M342.507,222.158l-28.131,75.015h6.03h16.744h0.668l4.017-12.055h26.124l1.006,1.207l3.013,10.849
		h6.028h18.083l-28.13-75.015L342.507,222.158L342.507,222.158z M346.525,269.04l8.04-27.459l8.706,27.459H346.525z"/>
	<polygon style="fill:#48C92D;" points="440.566,222.824 425.561,247.612 410.559,222.824 384.704,222.824 414.174,266.363 
		414.174,297.174 437.62,297.174 437.62,265.692 465.32,222.824 	"/>
</g>
<path style="fill:#FFFFFF;" d="M232.107,289.573c0.139-0.113,0.27-0.235,0.407-0.349c2.67-2.343,6.017-6.103,8.308-11.532
	l-24.908-2.621c0,0-2.008,3.348-6.697,5.358c-10.047,4.019-19.422-2.68-19.422-14.066h53.583
	c1.34-28.802-11.386-43.539-37.509-44.875h-6.701c-5.618,0.319-10.38,1.418-14.361,3.25c-14.871,5.906-23.514,19.199-22.477,38.945
	c1.34,20.764,15.408,33.49,36.838,34.162h7.371c11.043,0,19.24-3.163,25.462-8.185C232.038,289.632,232.072,289.602,232.107,289.573
	z M194.485,241.581c2.352-2.17,5.586-3.21,9.023-3.33c6.974,0.367,13.538,6.597,13.076,15.387h-26.788
	C190.467,248.277,191.802,244.259,194.485,241.581z"/>
<g>
</g>
<g>
</g>
<g>
</g>
<g>
</g>
<g>
</g>
<g>
</g>
<g>
</g>
<g>
</g>
<g>
</g>
<g>
</g>
<g>
</g>
<g>
</g>
<g>
</g>
<g>
</g>
<g>
</g>
</svg>
