<?xml version="1.0" encoding="iso-8859-1"?>
<!-- Generator: Adobe Illustrator 19.0.0, SVG Export Plug-In . SVG Version: 6.00 Build 0)  -->
<svg version="1.1" id="Layer_1" xmlns="http://www.w3.org/2000/svg" xmlns:xlink="http://www.w3.org/1999/xlink" x="0px" y="0px"
	 viewBox="0 0 512 512" style="enable-background:new 0 0 512 512;" xml:space="preserve">
<path style="fill:#E7E8E3;" d="M512,402.282c0,16.715-13.55,30.267-30.265,30.267H30.265C13.55,432.549,0,418.996,0,402.282V109.717
	c0-16.716,13.55-30.266,30.265-30.266h451.469c16.716,0,30.265,13.551,30.265,30.266v292.565H512z"/>
<path style="opacity:0.15;fill:#202121;enable-background:new    ;" d="M21.517,402.282V109.717
	c0-16.716,13.552-30.266,30.267-30.266h-21.52C13.55,79.451,0,93.003,0,109.717v292.565c0,16.715,13.55,30.267,30.265,30.267h21.52
	C35.07,432.549,21.517,418.996,21.517,402.282z"/>
<polygon style="fill:#FFC715;" points="347.917,185.99 348.056,185.328 305.802,185.328 295.237,185.328 281.052,280.122 
	267.511,185.99 266.289,185.99 266.189,185.328 204.793,185.328 191.235,273.476 178.292,185.328 178.292,185.328 176.406,185.328 
	122.93,185.328 155.278,338.491 217.337,338.491 222.62,338.491 236.154,241.824 249.685,338.491 250.346,338.491 315.703,338.491 
	316.363,338.491 348.713,185.99 "/>
<path style="fill:#44423E;" d="M409.287,185.328H387.5v95.727c0,5.939-1.322,11.222-3.961,14.522
	c-2.639,3.301-5.944,5.283-9.904,5.283c-4.617,0-7.922-1.981-10.561-5.283c-2.639-3.3-3.3-8.583-3.3-15.183v-95.066h-11.226
	l-29.706,141.281c5.28,4.621,11.885,8.583,19.807,10.561c9.244,3.3,21.126,4.621,35.647,4.621h2.643l0.007-0.036
	c23.109-0.373,40.7-5.611,52.146-15.146c11.883-10.565,17.827-26.41,17.827-48.197v-93.084L409.287,185.328L409.287,185.328z"/>
<g>
	<g>
		<path style="fill:#44423E;" d="M127.443,346.841c-3.861,0-7.328-2.696-8.159-6.625L86.936,187.054
			c-0.953-4.511,1.932-8.94,6.443-9.893c4.509-0.954,8.939,1.931,9.892,6.442l32.348,153.163c0.954,4.511-1.93,8.94-6.441,9.893
			C128.595,346.782,128.016,346.841,127.443,346.841z"/>
	</g>
</g>
<g>
	<g>
		<path style="fill:#44423E;" d="M99.617,346.841c-3.861,0-7.328-2.696-8.159-6.625L59.11,187.054
			c-0.953-4.511,1.932-8.94,6.443-9.893c4.511-0.954,8.939,1.931,9.892,6.442l32.348,153.163c0.954,4.511-1.93,8.94-6.441,9.893
			C100.769,346.782,100.189,346.841,99.617,346.841z"/>
	</g>
</g>
<g>
</g>
<g>
</g>
<g>
</g>
<g>
</g>
<g>
</g>
<g>
</g>
<g>
</g>
<g>
</g>
<g>
</g>
<g>
</g>
<g>
</g>
<g>
</g>
<g>
</g>
<g>
</g>
<g>
</g>
</svg>
