<?xml version="1.0" encoding="iso-8859-1"?>
<!-- Generator: Adobe Illustrator 19.0.0, SVG Export Plug-In . SVG Version: 6.00 Build 0)  -->
<svg version="1.1" id="Layer_1" xmlns="http://www.w3.org/2000/svg" xmlns:xlink="http://www.w3.org/1999/xlink" x="0px" y="0px"
	 viewBox="0 0 512 512" style="enable-background:new 0 0 512 512;" xml:space="preserve">
<path style="fill:#3466B7;" d="M512,402.282c0,16.716-13.55,30.267-30.265,30.267H30.265C13.55,432.549,0,418.996,0,402.282V109.717
	c0-16.716,13.55-30.266,30.265-30.266h451.469c16.716,0,30.265,13.551,30.265,30.266v292.565H512z"/>
<path style="opacity:0.15;fill:#202121;enable-background:new    ;" d="M21.517,402.282V109.717
	c0-16.716,13.552-30.266,30.267-30.266h-21.52C13.55,79.451,0,93.003,0,109.717v292.563c0,16.716,13.55,30.267,30.265,30.267h21.52
	C35.07,432.549,21.517,418.996,21.517,402.282z"/>
<g>
	<path style="fill:#FFFFFF;" d="M135.771,212.19l-11.183,46.03c-1.313,4.605-1.97,8.549-2.628,13.154
		c-0.659-5.259-1.318-9.863-2.63-13.808l-13.152-45.377H93.024l-12.495,45.377c-1.316,4.605-1.975,9.204-2.628,13.808
		c-0.659-4.606-1.318-9.205-2.632-14.466L64.089,212.19H51.594l19.07,74.313h14.47l12.495-46.035
		c1.313-4.604,1.972-9.208,2.628-13.812c0.659,4.605,1.318,9.208,2.635,13.812l12.492,45.378h14.47l17.756-73.655h-11.837V212.19z"
		/>
	<path style="fill:#FFFFFF;" d="M172.6,230.6c-16.442,0-26.966,12.496-26.966,28.937c0,19.074,9.865,27.619,24.989,27.619
		c16.441,0,26.961-12.496,26.961-29.591C197.585,238.492,187.065,230.6,172.6,230.6z M171.942,276.636
		c-9.208,0-13.813-5.92-13.813-18.416c0-12.492,6.576-17.753,13.813-17.753c9.205,0,13.806,6.575,13.806,17.753
		C185.748,270.716,179.174,276.636,171.942,276.636z"/>
	<path style="fill:#FFFFFF;" d="M214.026,243.095c1.318-3.946,1.318-8.55,1.318-11.837h-11.178v54.585h11.837v-22.361
		c0-16.441,5.261-23.674,15.783-21.703v-11.837C221.922,229.288,216.658,235.863,214.026,243.095z"/>
	<polygon style="fill:#FFFFFF;" points="250.857,211.531 239.017,211.531 239.017,264.14 239.017,285.843 250.857,285.843 
		250.859,285.843 250.859,252.304 250.857,252.304 	"/>
	<path style="fill:#FFFFFF;" d="M294.261,231.258c-2.63-0.659-5.264-0.659-7.891-0.659c-17.759,0-28.278,12.496-28.278,30.91
		c0,15.783,6.574,25.646,19.729,25.646c8.55,0,15.124-4.6,17.756-11.181c-0.659,2.635-0.659,7.234-0.659,9.867h11.181v-74.313
		h-11.837V231.258z M293.602,241.125v17.094c0,9.208-4.605,19.733-13.154,19.733c-7.233,0-10.519-5.92-10.519-17.099
		c0-14.471,6.574-20.387,15.783-20.387c2.628,0,5.919,0,8.55,0.659h-0.66V241.125z"/>
	<path style="fill:#FFFFFF;" d="M333.717,211.531c-7.235,0-13.149,0.659-19.072,0.659v73.655h11.837v-26.966h5.264
		c17.756,0,28.937-10.52,28.937-24.99C360.683,220.081,351.474,211.531,333.717,211.531z M331.746,249.017
		c-1.973,0-3.946-0.659-5.264-0.659v-26.966h5.921c11.178,0,15.783,5.261,15.783,13.153
		C348.187,243.754,341.609,249.017,331.746,249.017z"/>
	<path style="fill:#FFFFFF;" d="M394.222,285.843c0-0.215,0-0.44,0-0.659l0,0V285.843z"/>
	<path style="fill:#FFFFFF;" d="M406.058,285.185V247.7c0-10.52-4.605-17.757-21.045-17.757c-7.233,0-14.47,1.975-19.729,3.946
		l1.972,9.207c4.605-2.629,10.524-3.946,15.783-3.946c8.55,0,11.183,3.946,11.183,10.524v3.288c-20.387,0-32.228,6.575-32.228,19.07
		c0,9.207,5.921,15.125,15.128,15.125c8.55,0,15.126-4.6,17.754-11.181c-0.611,2.463-0.652,6.064-0.654,9.208h11.836V285.185z
		 M379.753,277.953c-4.605,0-7.233-3.291-7.233-7.237c0-5.186,4.487-9.734,20.384-9.856v1.966
		C392.904,270.061,387.643,277.953,379.753,277.953z"/>
	<path style="fill:#FFFFFF;" d="M445.516,231.258l-7.891,22.361c-1.972,5.917-3.946,12.496-5.264,17.095
		c-0.655-4.6-1.97-9.862-3.946-14.466l-8.548-24.99h-13.15l21.041,54.585l-1.971,5.259c-3.946,9.865-8.55,12.495-13.811,12.495
		c-1.972,0-4.605,0-6.576-0.654l-1.316,9.862c1.316,0.659,4.602,0.659,6.578,0.659c12.496,0,19.729-5.262,26.302-23.674
		l21.045-58.531L445.516,231.258L445.516,231.258z"/>
</g>
<g>
</g>
<g>
</g>
<g>
</g>
<g>
</g>
<g>
</g>
<g>
</g>
<g>
</g>
<g>
</g>
<g>
</g>
<g>
</g>
<g>
</g>
<g>
</g>
<g>
</g>
<g>
</g>
<g>
</g>
</svg>
